<?xml version="1.0" encoding="iso-8859-1"?>
<!-- Generator: Adobe Illustrator 19.0.0, SVG Export Plug-In . SVG Version: 6.00 Build 0)  -->
<svg version="1.1" id="Layer_1" xmlns="http://www.w3.org/2000/svg" xmlns:xlink="http://www.w3.org/1999/xlink" x="0px" y="0px"
	 viewBox="0 0 512.002 512.002" style="enable-background:new 0 0 512.002 512.002;" xml:space="preserve">
<path style="fill:#AF7C38;" d="M384.656,399.717v112.275H115.038V399.717c0-37.549,27.061-68.777,62.742-75.246
	c1.125-0.21,2.251-0.383,3.401-0.532c3.376-0.47,6.839-0.705,10.352-0.705h116.641c3.5,0,6.951,0.235,10.327,0.705
	c1.138,0.148,2.276,0.322,3.401,0.532C357.583,330.928,384.656,362.156,384.656,399.717z"/>
<g>
	<rect x="242.422" y="343.998" style="fill:#9B6C34;" width="14.841" height="168.004"/>
	<path style="fill:#9B6C34;" d="M318.501,323.94l-13.617,72.005l-55.049-27.135l-55.037,27.135l-13.617-72.005
		c3.376-0.47,6.839-0.705,10.352-0.705h116.641C311.674,323.235,315.124,323.47,318.501,323.94z"/>
</g>
<rect x="296.222" y="463.347" style="fill:#CCCCCC;" width="60.602" height="18.552"/>
<circle style="fill:#666666;" cx="225.009" cy="412.812" r="8.209"/>
<g>
	<path style="fill:#E0B394;" d="M121.326,220.791c-15.336-0.68-27.543-13.332-27.543-28.829c0-15.93,12.912-28.854,28.854-28.854
		c1.435,0,2.845,0.099,4.23,0.309"/>
	<path style="fill:#E0B394;" d="M378.353,220.791c15.336-0.68,27.555-13.332,27.555-28.829c0-15.93-12.924-28.854-28.866-28.854
		c-1.435,0-2.857,0.111-4.23,0.309"/>
</g>
<path style="fill:#FCE8CA;" d="M477.68,273.914c-1.198-7.259-5.443-13.967-12.244-18.05c-12.299-7.384-28.253-3.399-35.637,8.899
	c-7.384,12.299-3.399,28.253,8.899,35.637c1.265,0.759,2.569,1.398,3.897,1.918l-19.263,32.087l-0.057,0.027l-9.189,15.374
	l-9.219,15.356l0.009,0.053l-19.207,32.133c-1.087-0.925-2.265-1.774-3.53-2.53c-12.312-7.36-28.259-3.344-35.619,8.968
	c-7.36,12.312-3.344,28.259,8.968,35.619c6.81,4.07,14.726,4.647,21.692,2.279c1.213,7.256,5.469,13.956,12.279,18.026
	c12.312,7.36,28.259,3.344,35.619-8.968c7.36-12.312,3.344-28.259-8.968-35.619c-1.266-0.757-2.571-1.393-3.901-1.911l28.403-47.517
	l28.457-47.401c1.064,0.899,2.211,1.727,3.446,2.465c2.33,1.393,4.791,2.375,7.298,2.973c10.769,2.644,22.448-1.856,28.453-11.862
	c7.384-12.299,3.399-28.253-8.9-35.637C492.566,272.152,484.651,271.56,477.68,273.914z"/>
<path style="fill:#9B6C34;" d="M238.658,323.227h-47.129c-42.243,0-76.49,34.245-76.49,76.49v112.276h47.129V399.717
	C162.168,357.473,196.414,323.227,238.658,323.227z"/>
<path style="fill:#F7CBA4;" d="M342.361,308.63l-50.77,36.881c-24.896,18.082-58.599,18.082-83.483,0l-50.77-36.881
	c-26.826-19.492-41.346-51.722-38.155-84.732l5.949-61.53l2.857-29.596c1.966-20.419,8.892-39.28,19.504-55.408
	c21.978-33.455,59.823-55.247,102.356-55.247c31.526,0,60.466,11.972,82.295,31.798c7.619,6.914,14.371,14.792,20.061,23.449
	c10.612,16.128,17.525,34.989,19.504,55.408l2.857,29.596l5.949,61.53C383.694,256.907,369.186,289.138,342.361,308.63z"/>
<g>
	<path style="fill:#E0B394;" d="M150.777,241.853c-0.853,14.433,3.846,28.631,13.147,39.701l53.062,65.203
		c2.77,3.302,5.912,6.073,9.313,8.286c-6.382-2.226-12.516-5.417-18.193-9.536l-50.77-36.881
		c-26.826-19.492-41.333-51.722-38.142-84.732l8.794-91.126c6.011-62.148,57.782-109.715,120.03-110.618
		c-38.34,0.928-81.755,37.066-84.018,75.555L150.777,241.853z"/>
	<path style="fill:#E0B394;" d="M374.566,162.368c-35.285,11.675-78.288,19.838-124.717,19.838s-89.432-8.163-124.717-19.838
		l2.857-29.596c1.966-20.419,8.892-39.28,19.504-55.408c3.005,0.025,6.048,0.049,9.14,0.074H342.88
		c3.154-0.025,6.258-0.049,9.325-0.074c10.612,16.128,17.525,34.989,19.504,55.408L374.566,162.368z"/>
</g>
<path style="fill:#666666;" d="M324.046,67.733c58.484-0.563,98.917,0.72,98.917,17.252c0,22.874-77.502,66.306-173.113,66.306
	S76.737,107.861,76.737,84.986c0-16.512,40.364-17.815,98.768-17.252"/>
<g>
	<path style="fill:#4D4D4D;" d="M324.046,67.733h33.339C347.149,67.581,335.974,67.619,324.046,67.733z"/>
	<path style="fill:#4D4D4D;" d="M126.056,84.986c0-13.158,25.631-16.658,65.598-17.252h-16.15
		c-58.405-0.563-98.768,0.74-98.768,17.252c0,22.874,77.502,66.306,173.113,66.306c8.373,0,16.604-0.34,24.66-0.963
		C190.582,143.835,126.056,105.857,126.056,84.986z"/>
</g>
<path style="fill:#666666;" d="M351.478,87.384c-33.01,11.292-67.429,16.944-101.837,16.944c-15.818,0-31.649-1.2-47.332-3.587
	c-18.428-2.807-36.671-7.26-54.505-13.357l21.31-73.23c3.302-11.341,15.818-17.228,26.665-12.529l21.05,9.115l32.713,14.186h0.186
	l53.775-23.301c10.847-4.7,23.35,1.187,26.653,12.529L351.478,87.384z"/>
<path style="fill:#4D4D4D;" d="M216.83,10.741l-14.52,90.001c-18.428-2.807-36.671-7.26-54.505-13.357l21.31-73.23
	c3.302-11.341,15.818-17.228,26.665-12.529L216.83,10.741z"/>
<path style="fill:#AF7C38;" d="M351.868,87.592c-33.096,11.329-67.59,16.993-102.096,16.993c-16.041,0-32.07-1.224-47.975-3.673
	c-18.292-2.82-36.411-7.26-54.109-13.32l10.241-35.186c16.548,5.034,33.393,8.682,50.399,10.933
	c13.753,1.83,27.605,2.746,41.445,2.746c30.957,0,61.913-4.564,91.856-13.679L351.868,87.592z"/>
<path style="fill:#C0E7F9;" d="M132.95,460.052c-21.446,21.446-54.963,23.462-78.672,6.035c-2.461-1.793-4.811-3.809-7.037-6.035
	c-23.66-23.672-23.66-62.037,0-85.709c23.672-23.66,62.037-23.66,85.709,0c2.226,2.226,4.242,4.576,6.048,7.037
	C156.399,405.09,154.383,438.607,132.95,460.052z"/>
<path style="fill:#F95428;" d="M9.303,507.268c-2.373,0-4.748-0.905-6.559-2.717c-3.623-3.623-3.623-9.496,0-13.117l37.939-37.939
	c3.623-3.622,9.496-3.622,13.117,0c3.623,3.623,3.623,9.496,0,13.117l-37.939,37.939C14.051,506.361,11.676,507.268,9.303,507.268z"
	/>
<path style="fill:#FCE8CA;" d="M75.348,305.463c-32.898-11.898-52.402-50.56-52.402-50.56c3.364-7.037,7.928-11.354,12.776-13.901
	c12.949-6.852,27.988-1.125,27.988-1.125L75.348,305.463z"/>
<path style="fill:#E6F6FC;" d="M132.95,460.052c-21.446,21.446-54.963,23.462-78.672,6.035l84.719-84.707
	C156.399,405.09,154.383,438.607,132.95,460.052z"/>
<path style="fill:#B3B3B3;" d="M90.094,487.045c-17.894,0-35.789-6.811-49.411-20.434c-27.245-27.245-27.245-71.577,0-98.823
	c27.245-27.245,71.577-27.246,98.822,0c27.245,27.245,27.245,71.577,0,98.823C125.883,480.234,107.989,487.045,90.094,487.045z
	 M90.094,365.897c-13.143,0-26.288,5.003-36.293,15.008c-20.012,20.012-20.012,52.574,0,72.587
	c10.004,10.004,23.151,15.007,36.293,15.008c13.146,0.001,26.287-5.002,36.293-15.008c9.694-9.694,15.033-22.584,15.033-36.293
	s-5.339-26.599-15.033-36.293C116.382,370.9,103.238,365.897,90.094,365.897z"/>
<path style="fill:#9B6C34;" d="M208.339,63.351l-6.035,37.388l-0.507,0.173c-18.292-2.82-36.411-7.26-54.109-13.32l10.241-35.186
	c16.548,5.034,33.393,8.682,50.399,10.933L208.339,63.351z"/>
<path style="fill:#E0B394;" d="M264.072,170.377v58.615c0,7.854-6.369,14.223-14.223,14.223c-3.921,0-7.483-1.595-10.055-4.168
	c-2.573-2.572-4.168-6.122-4.168-10.055v-61.175"/>
<g>
	<path style="fill:#666666;" d="M194.792,220.152c-4.781,0-8.657-3.876-8.657-8.657v-14.836c0-4.781,3.876-8.657,8.657-8.657
		s8.657,3.876,8.657,8.657v14.836C203.449,216.275,199.573,220.152,194.792,220.152z"/>
	<path style="fill:#666666;" d="M304.906,220.152c-4.781,0-8.657-3.876-8.657-8.657v-14.836c0-4.781,3.876-8.657,8.657-8.657
		c4.781,0,8.657,3.876,8.657,8.657v14.836C313.563,216.275,309.688,220.152,304.906,220.152z"/>
</g>
<path style="fill:#F2F2F2;" d="M298.263,270.705c0,0-0.705,1.731-2.189,4.465c-0.359,0.705-0.779,1.447-1.249,2.251
	c-0.557,0.792-1.2,1.595-1.892,2.498s-1.484,1.818-2.325,2.832c-0.297,0.383-0.618,0.705-0.965,1.039
	c-0.124,0.124-0.26,0.247-0.396,0.371c-0.482,0.445-0.977,0.915-1.484,1.385c-1.014,0.952-2.115,1.892-3.265,2.882
	c-1.212,0.89-2.511,1.731-3.846,2.647c-0.668,0.458-1.36,0.903-2.065,1.348c-0.705,0.421-1.459,0.767-2.226,1.15
	c-1.509,0.767-3.08,1.509-4.7,2.251c-3.339,1.138-6.815,2.474-10.525,3.03c-3.661,0.853-7.483,0.989-11.292,1.175
	c-3.809-0.186-7.631-0.309-11.292-1.163c-3.71-0.557-7.186-1.892-10.525-3.03c-1.62-0.73-3.191-1.472-4.712-2.239
	c-0.754-0.383-1.509-0.73-2.226-1.15c-0.693-0.458-1.385-0.891-2.053-1.348c-1.336-0.915-2.647-1.769-3.859-2.647
	c-1.15-0.989-2.239-1.942-3.265-2.882c-0.507-0.482-0.989-0.94-1.472-1.398c-0.173-0.161-0.346-0.322-0.519-0.482
	c-0.297-0.297-0.581-0.581-0.829-0.915c-0.804-0.977-1.583-1.88-2.263-2.77c-0.668-0.903-1.323-1.694-1.868-2.486
	c-0.495-0.841-0.952-1.608-1.336-2.313c-1.546-2.82-2.189-4.502-2.189-4.502s1.83,0.557,4.65,1.694
	c0.717,0.272,1.459,0.606,2.288,0.94c0.878,0.26,1.781,0.594,2.746,0.915c0.977,0.322,1.954,0.717,2.993,1.088
	c1.027,0.396,2.189,0.655,3.339,1.002c1.15,0.334,2.3,0.742,3.5,1.101c1.249,0.272,2.498,0.594,3.785,0.903
	c0.643,0.148,1.274,0.334,1.917,0.507c0.655,0.148,1.336,0.235,2.004,0.371c1.348,0.235,2.696,0.507,4.044,0.816
	c2.807,0.26,5.578,0.878,8.472,0.989c2.857,0.371,5.776,0.272,8.67,0.445c2.906-0.173,5.825-0.062,8.682-0.433
	c2.894-0.099,5.664-0.73,8.472-0.989c1.348-0.297,2.696-0.569,4.044-0.804c0.668-0.136,1.348-0.223,2.004-0.371
	c0.643-0.185,1.286-0.359,1.917-0.507c1.286-0.309,2.535-0.643,3.785-0.903c1.212-0.359,2.362-0.767,3.512-1.101
	c1.138-0.346,2.325-0.618,3.315-1.002c1.014-0.346,1.966-0.73,2.931-1.027c0.952-0.322,1.843-0.643,2.721-0.903
	c0.866-0.371,1.633-0.73,2.362-1.014C296.47,271.224,298.263,270.705,298.263,270.705z"/>
<path style="fill:#4D4D4D;" d="M289.643,283.79c-0.124,0.124-0.26,0.247-0.396,0.371c-0.482,0.445-0.977,0.915-1.484,1.385
	c-1.014,0.952-2.115,1.892-3.265,2.882c-1.212,0.89-2.511,1.731-3.846,2.647c-0.668,0.458-1.36,0.903-2.065,1.348
	c-0.705,0.421-1.459,0.767-2.226,1.15c-1.509,0.767-3.08,1.509-4.7,2.251c-3.339,1.138-6.815,2.474-10.525,3.03
	c-3.661,0.853-7.483,0.989-11.292,1.175c-3.809-0.186-7.631-0.309-11.292-1.163c-3.71-0.557-7.186-1.892-10.525-3.03
	c-1.62-0.73-3.191-1.472-4.712-2.239c-0.754-0.383-1.509-0.73-2.226-1.15c-0.693-0.458-1.385-0.891-2.053-1.348
	c-1.336-0.915-2.647-1.769-3.859-2.647c-1.15-0.989-2.239-1.942-3.265-2.882c-0.507-0.482-0.989-0.94-1.472-1.398
	c-0.173-0.161-0.346-0.322-0.519-0.482c0.396,0.136,0.792,0.272,1.2,0.408c0.977,0.322,1.954,0.705,2.993,1.076
	c1.027,0.408,2.189,0.668,3.339,1.014c1.15,0.334,2.3,0.73,3.5,1.101c1.249,0.26,2.498,0.594,3.785,0.903
	c0.643,0.148,1.274,0.322,1.917,0.495c0.655,0.148,1.336,0.235,2.004,0.371c1.348,0.235,2.696,0.519,4.044,0.816
	c2.807,0.272,5.578,0.89,8.472,0.989c2.857,0.383,5.776,0.272,8.67,0.458c2.906-0.173,5.825-0.062,8.682-0.445
	c2.894-0.099,5.664-0.717,8.472-0.977c1.348-0.297,2.696-0.581,4.044-0.816c0.668-0.136,1.348-0.223,2.004-0.371
	c0.643-0.173,1.286-0.346,1.917-0.495c1.286-0.309,2.535-0.643,3.785-0.903c1.212-0.371,2.362-0.779,3.512-1.101
	c1.138-0.346,2.325-0.631,3.315-1.002c1.014-0.359,1.966-0.73,2.931-1.039C288.888,284.05,289.272,283.914,289.643,283.79z"/>
<g>
	<path style="fill:#666666;" d="M283.699,174.501c0,0,0.025-0.246,0.108-0.669c0.095-0.409,0.192-1.056,0.399-1.788
		c0.093-0.378,0.213-0.773,0.35-1.207c0.179-0.44,0.421-0.883,0.677-1.385c0.254-0.505,0.574-1.003,0.91-1.563
		c0.339-0.569,0.743-1.001,1.158-1.55c0.421-0.528,0.894-1.039,1.389-1.588c0.523-0.496,1.091-0.984,1.694-1.475
		c1.181-1.04,2.624-1.792,4.128-2.628c1.556-0.658,3.207-1.372,4.976-1.702c1.751-0.455,3.588-0.563,5.42-0.648
		c1.832,0.084,3.67,0.182,5.422,0.634c1.77,0.327,3.422,1.044,4.979,1.697c1.505,0.835,2.95,1.586,4.132,2.627
		c0.602,0.492,1.171,0.982,1.696,1.475c0.495,0.55,0.966,1.066,1.389,1.59c0.408,0.547,0.832,0.996,1.143,1.542
		c0.312,0.544,0.613,1.031,0.858,1.525c0.244,0.495,0.48,0.93,0.658,1.369c0.162,0.458,0.306,0.872,0.412,1.264
		c0.235,0.758,0.333,1.41,0.423,1.818c0.079,0.422,0.096,0.662,0.096,0.662s-0.256-0.006-0.689-0.048
		c-0.421-0.054-1.074-0.082-1.795-0.187c-0.374-0.038-0.754-0.108-1.174-0.163c-0.446-0.021-0.887-0.083-1.365-0.12
		c-0.939-0.099-1.918-0.246-2.995-0.288c-0.529-0.035-1.043-0.111-1.579-0.156c-0.555-0.007-1.103-0.036-1.647-0.077
		c-1.066-0.139-2.225-0.057-3.301-0.192c-1.132,0.041-2.215-0.098-3.337-0.063c-1.103-0.083-2.219,0.005-3.326-0.073
		c-1.107,0.075-2.223-0.021-3.328,0.059c-1.123-0.04-2.206,0.104-3.341,0.058c-1.077,0.134-2.239,0.051-3.305,0.19
		c-0.544,0.041-1.092,0.071-1.649,0.077c-0.537,0.045-1.048,0.126-1.579,0.158c-1.098,0.059-2.011,0.163-2.927,0.242
		c-0.481,0.037-0.931,0.072-1.348,0.103c-0.444,0.08-0.85,0.169-1.236,0.22c-0.748,0.132-1.402,0.163-1.818,0.216
		C283.946,174.501,283.699,174.501,283.699,174.501z"/>
	<path style="fill:#666666;" d="M173.583,174.501c0,0,0.025-0.246,0.108-0.669c0.095-0.409,0.192-1.056,0.399-1.788
		c0.093-0.378,0.213-0.773,0.35-1.207c0.179-0.44,0.421-0.883,0.677-1.385c0.254-0.505,0.574-1.003,0.91-1.563
		c0.339-0.569,0.743-1.001,1.158-1.55c0.421-0.528,0.894-1.039,1.389-1.588c0.523-0.496,1.091-0.984,1.694-1.475
		c1.181-1.04,2.624-1.792,4.128-2.628c1.556-0.658,3.207-1.372,4.976-1.702c1.751-0.455,3.588-0.563,5.42-0.648
		c1.832,0.084,3.67,0.182,5.422,0.634c1.77,0.327,3.422,1.044,4.979,1.697c1.505,0.835,2.95,1.586,4.132,2.627
		c0.602,0.492,1.171,0.982,1.696,1.475c0.495,0.55,0.966,1.066,1.389,1.59c0.408,0.547,0.832,0.996,1.143,1.542
		c0.312,0.544,0.613,1.031,0.858,1.525c0.244,0.495,0.48,0.93,0.658,1.369c0.162,0.458,0.305,0.872,0.412,1.264
		c0.235,0.758,0.333,1.41,0.423,1.818c0.079,0.422,0.096,0.662,0.096,0.662s-0.256-0.006-0.689-0.048
		c-0.421-0.054-1.074-0.082-1.795-0.187c-0.374-0.038-0.754-0.108-1.174-0.163c-0.446-0.021-0.887-0.083-1.365-0.12
		c-0.939-0.099-1.918-0.246-2.995-0.288c-0.529-0.035-1.043-0.111-1.579-0.156c-0.555-0.007-1.103-0.036-1.647-0.077
		c-1.066-0.139-2.225-0.057-3.301-0.192c-1.132,0.041-2.215-0.098-3.337-0.063c-1.103-0.083-2.219,0.005-3.326-0.073
		c-1.107,0.075-2.223-0.021-3.328,0.059c-1.123-0.04-2.206,0.104-3.341,0.058c-1.077,0.134-2.239,0.051-3.305,0.19
		c-0.544,0.041-1.092,0.071-1.649,0.077c-0.537,0.045-1.048,0.126-1.579,0.158c-1.098,0.059-2.011,0.163-2.927,0.242
		c-0.481,0.037-0.931,0.072-1.348,0.103c-0.444,0.08-0.85,0.169-1.236,0.22c-0.748,0.132-1.403,0.163-1.818,0.216
		C173.832,174.501,173.583,174.501,173.583,174.501z"/>
</g>
<g>
	<circle style="fill:#AF7C38;" cx="445.539" cy="224.166" r="7.73"/>
	<circle style="fill:#AF7C38;" cx="451.711" cy="181.547" r="7.73"/>
	<circle style="fill:#AF7C38;" cx="471.944" cy="206.975" r="7.73"/>
	<circle style="fill:#AF7C38;" cx="100.279" cy="266.291" r="7.73"/>
	<circle style="fill:#AF7C38;" cx="437.018" cy="475.925" r="7.73"/>
	<circle style="fill:#AF7C38;" cx="25.654" cy="331.766" r="7.73"/>
</g>
<path style="fill:#EAD5B9;" d="M75.348,305.463c-32.898-11.898-52.402-50.56-52.402-50.56c3.364-7.037,7.928-11.354,12.776-13.901
	C44.503,273.567,75.348,305.463,75.348,305.463z"/>
<g>
</g>
<g>
</g>
<g>
</g>
<g>
</g>
<g>
</g>
<g>
</g>
<g>
</g>
<g>
</g>
<g>
</g>
<g>
</g>
<g>
</g>
<g>
</g>
<g>
</g>
<g>
</g>
<g>
</g>
</svg>
