<?xml version="1.0" encoding="iso-8859-1"?>
<!-- Generator: Adobe Illustrator 19.0.0, SVG Export Plug-In . SVG Version: 6.00 Build 0)  -->
<svg version="1.1" id="Layer_1" xmlns="http://www.w3.org/2000/svg" xmlns:xlink="http://www.w3.org/1999/xlink" x="0px" y="0px"
	 viewBox="0 0 512 512" style="enable-background:new 0 0 512 512;" xml:space="preserve">
<g>
	<path style="fill:#F9C573;" d="M409.909,53.303h-20.653c-17.583,0-31.836,14.253-31.836,31.836L307.867,512H478.69V122.085
		C478.69,84.098,447.896,53.303,409.909,53.303z"/>
	<path style="fill:#F9C573;" d="M102.092,53.303h20.653c17.583,0,31.836,14.253,31.836,31.836L237.564,512H33.311V122.085
		C33.311,84.098,64.105,53.303,102.092,53.303z"/>
</g>
<path style="fill:#EA8249;" d="M256.001,0L256.001,0c-56.013,0-101.42,45.408-101.42,101.42V512h202.841V101.42
	C357.421,45.408,312.013,0,256.001,0z"/>
<g>
	<path style="fill:#D36F3D;" d="M274.177,1.627C268.279,0.56,262.206,0,256.001,0l0,0c-56.013,0-101.42,45.408-101.42,101.42V512
		h36.352V101.42C190.933,51.613,226.838,10.193,274.177,1.627z"/>
	<path style="fill:#D36F3D;" d="M237.824,1.627C243.722,0.56,249.796,0,256.001,0l0,0c56.013,0,101.42,45.408,101.42,101.42V512
		h-36.352V101.42C321.069,51.613,285.164,10.193,237.824,1.627z"/>
</g>
<g>
	<path style="fill:#E2AF66;" d="M416.173,53.6c-2.064-0.187-4.151-0.296-6.264-0.296h-20.653c-17.583,0-31.836,14.253-31.836,31.836
		V512h31.213V85.139C388.634,69.014,400.624,55.699,416.173,53.6z"/>
	<path style="fill:#E2AF66;" d="M127.624,53.676c-1.59-0.244-3.22-0.372-4.88-0.372h-20.653c-37.987,0-68.781,30.794-68.781,68.781
		V512h32.7V122.085C66.011,86.518,93.007,57.261,127.624,53.676z"/>
</g>
<path style="fill:#F7CBA4;" d="M256.001,168.554L256.001,168.554c-56.013,0-101.42,45.408-101.42,101.42v57.625
	c0,56.013,45.408,101.42,101.42,101.42l0,0c56.013,0,101.42-45.408,101.42-101.42v-57.625
	C357.421,213.961,312.013,168.554,256.001,168.554z"/>
<path style="fill:#E0B394;" d="M184.625,327.599v-57.625c0-50.908,37.509-93.052,86.399-100.311
	c-4.903-0.728-9.917-1.11-15.022-1.11l0,0c-56.013,0-101.42,45.408-101.42,101.42v57.625c0,56.013,45.408,101.42,101.42,101.42l0,0
	c5.104,0,10.12-0.381,15.022-1.11C222.134,420.651,184.625,378.508,184.625,327.599z"/>
<path style="fill:#666666;" d="M324.621,195.315c-18.06,16.619-42.147,26.761-68.609,26.761s-50.56-10.142-68.62-26.761
	c18.048-16.631,42.147-26.761,68.609-26.761S306.561,178.696,324.621,195.315z"/>
<path style="fill:#F2F2F2;" d="M301.118,347.702c0,0-0.657,1.613-2.04,4.161c-0.334,0.657-0.726,1.348-1.164,2.098
	c-0.519,0.738-1.118,1.487-1.763,2.328c-0.645,0.841-1.383,1.694-2.167,2.639c-0.277,0.357-0.576,0.657-0.899,0.968
	c-0.115,0.115-0.242,0.23-0.369,0.346c-0.449,0.415-0.91,0.853-1.383,1.291c-0.945,0.887-1.971,1.763-3.043,2.685
	c-1.129,0.83-2.34,1.613-3.584,2.466c-0.622,0.426-1.268,0.841-1.925,1.256c-0.657,0.392-1.36,0.715-2.074,1.072
	c-1.406,0.715-2.87,1.406-4.38,2.098c-3.112,1.06-6.35,2.305-9.808,2.824c-3.411,0.795-6.973,0.922-10.522,1.095
	c-3.55-0.173-7.111-0.288-10.522-1.083c-3.458-0.519-6.696-1.763-9.808-2.824c-1.51-0.68-2.973-1.371-4.391-2.086
	c-0.703-0.357-1.406-0.68-2.075-1.072c-0.645-0.426-1.291-0.83-1.913-1.256c-1.245-0.853-2.466-1.648-3.596-2.466
	c-1.072-0.922-2.086-1.809-3.043-2.685c-0.473-0.449-0.922-0.876-1.371-1.302c-0.161-0.15-0.323-0.3-0.484-0.449
	c-0.277-0.277-0.542-0.542-0.772-0.853c-0.749-0.91-1.475-1.752-2.109-2.582c-0.622-0.841-1.233-1.579-1.74-2.317
	c-0.461-0.784-0.887-1.498-1.245-2.155c-1.441-2.628-2.04-4.195-2.04-4.195s1.706,0.519,4.333,1.579
	c0.668,0.254,1.36,0.565,2.132,0.876c0.818,0.242,1.66,0.553,2.559,0.853c0.91,0.3,1.821,0.668,2.789,1.014
	c0.957,0.369,2.04,0.611,3.112,0.934c1.072,0.311,2.144,0.691,3.262,1.026c1.164,0.254,2.328,0.553,3.527,0.841
	c0.599,0.138,1.187,0.311,1.786,0.473c0.611,0.138,1.245,0.219,1.867,0.346c1.256,0.219,2.512,0.473,3.769,0.761
	c2.616,0.242,5.198,0.818,7.895,0.922c2.662,0.346,5.382,0.254,8.079,0.415c2.708-0.161,5.428-0.058,8.091-0.403
	c2.697-0.092,5.278-0.68,7.895-0.922c1.256-0.277,2.512-0.53,3.769-0.749c0.622-0.127,1.256-0.207,1.867-0.346
	c0.599-0.173,1.199-0.334,1.786-0.473c1.199-0.288,2.363-0.599,3.527-0.841c1.129-0.334,2.201-0.715,3.273-1.026
	c1.06-0.323,2.167-0.576,3.089-0.934c0.945-0.323,1.832-0.68,2.731-0.957c0.887-0.3,1.717-0.599,2.536-0.841
	c0.807-0.346,1.521-0.68,2.201-0.945C299.447,348.187,301.118,347.702,301.118,347.702z"/>
<g>
	<path style="fill:#4D4D4D;" d="M293.085,359.896c-0.115,0.115-0.242,0.23-0.369,0.346c-0.449,0.415-0.91,0.853-1.383,1.291
		c-0.945,0.887-1.971,1.763-3.043,2.685c-1.129,0.83-2.34,1.613-3.584,2.466c-0.622,0.426-1.268,0.841-1.925,1.256
		c-0.657,0.392-1.36,0.715-2.074,1.072c-1.406,0.715-2.87,1.406-4.38,2.098c-3.112,1.06-6.35,2.305-9.808,2.824
		c-3.411,0.795-6.973,0.922-10.522,1.095c-3.55-0.173-7.111-0.288-10.522-1.083c-3.458-0.519-6.696-1.763-9.808-2.824
		c-1.51-0.68-2.973-1.371-4.391-2.086c-0.703-0.357-1.406-0.68-2.075-1.072c-0.645-0.426-1.291-0.83-1.913-1.256
		c-1.245-0.853-2.466-1.648-3.596-2.466c-1.072-0.922-2.086-1.809-3.043-2.685c-0.473-0.449-0.922-0.876-1.371-1.302
		c-0.161-0.15-0.323-0.3-0.484-0.449c0.369,0.127,0.738,0.254,1.118,0.38c0.91,0.3,1.821,0.657,2.789,1.003
		c0.957,0.38,2.04,0.622,3.112,0.945c1.072,0.311,2.144,0.68,3.262,1.026c1.164,0.242,2.328,0.553,3.527,0.841
		c0.599,0.138,1.187,0.3,1.786,0.461c0.611,0.138,1.245,0.219,1.867,0.346c1.256,0.219,2.512,0.484,3.769,0.761
		c2.616,0.254,5.198,0.83,7.895,0.922c2.662,0.357,5.382,0.254,8.079,0.426c2.708-0.161,5.428-0.058,8.091-0.415
		c2.697-0.092,5.278-0.668,7.895-0.91c1.256-0.277,2.512-0.542,3.769-0.761c0.622-0.127,1.256-0.207,1.867-0.346
		c0.599-0.161,1.199-0.323,1.786-0.461c1.199-0.288,2.363-0.599,3.527-0.841c1.129-0.346,2.201-0.726,3.273-1.026
		c1.06-0.323,2.167-0.588,3.089-0.934c0.945-0.334,1.832-0.68,2.731-0.968C292.382,360.138,292.739,360.011,293.085,359.896z"/>
	<path style="fill:#4D4D4D;" d="M204.695,306.215c-4.774,0-8.644-3.87-8.644-8.644v-13.825c0-4.774,3.87-8.644,8.644-8.644
		c4.774,0,8.644,3.87,8.644,8.644v13.825C213.338,302.345,209.468,306.215,204.695,306.215z"/>
</g>
<g>
	<path style="fill:#666666;" d="M287.545,260.695c0,0,0.023-0.229,0.1-0.624c0.089-0.381,0.179-0.984,0.372-1.667
		c0.086-0.353,0.198-0.72,0.326-1.125c0.167-0.41,0.392-0.823,0.63-1.291c0.236-0.47,0.535-0.935,0.848-1.457
		c0.316-0.53,0.693-0.932,1.079-1.444c0.392-0.492,0.833-0.968,1.294-1.48c0.488-0.462,1.017-0.917,1.579-1.375
		c1.101-0.969,2.446-1.67,3.847-2.449c1.45-0.613,2.988-1.278,4.637-1.586c1.632-0.424,3.343-0.524,5.05-0.604
		c1.707,0.078,3.419,0.169,5.053,0.591c1.649,0.304,3.189,0.973,4.64,1.581c1.403,0.778,2.749,1.478,3.851,2.448
		c0.561,0.459,1.091,0.915,1.58,1.375c0.461,0.513,0.9,0.993,1.294,1.482c0.38,0.509,0.776,0.928,1.065,1.437
		c0.29,0.507,0.572,0.961,0.8,1.421c0.227,0.461,0.447,0.867,0.613,1.276c0.151,0.426,0.285,0.813,0.384,1.178
		c0.219,0.706,0.31,1.314,0.394,1.694c0.074,0.393,0.09,0.617,0.09,0.617s-0.239-0.006-0.642-0.045
		c-0.392-0.051-1-0.076-1.672-0.174c-0.348-0.036-0.703-0.1-1.094-0.152c-0.416-0.02-0.826-0.077-1.272-0.112
		c-0.875-0.092-1.788-0.229-2.791-0.269c-0.493-0.032-0.972-0.104-1.472-0.145c-0.517-0.007-1.028-0.033-1.535-0.071
		c-0.993-0.129-2.073-0.053-3.076-0.179c-1.055,0.038-2.064-0.091-3.109-0.059c-1.028-0.077-2.068,0.005-3.099-0.068
		c-1.031,0.07-2.071-0.02-3.101,0.055c-1.046-0.037-2.056,0.097-3.113,0.054c-1.004,0.124-2.086,0.047-3.079,0.177
		c-0.507,0.038-1.018,0.066-1.536,0.071c-0.5,0.041-0.976,0.118-1.472,0.148c-1.023,0.055-1.874,0.152-2.728,0.226
		c-0.448,0.035-0.868,0.067-1.256,0.096c-0.414,0.075-0.792,0.158-1.151,0.205c-0.697,0.123-1.307,0.152-1.694,0.202
		C287.775,260.695,287.545,260.695,287.545,260.695z"/>
	<path style="fill:#666666;" d="M184.933,260.695c0,0,0.023-0.229,0.1-0.624c0.089-0.381,0.179-0.984,0.372-1.667
		c0.086-0.353,0.198-0.72,0.326-1.125c0.167-0.41,0.392-0.823,0.63-1.291c0.236-0.47,0.535-0.935,0.848-1.457
		c0.316-0.53,0.693-0.932,1.079-1.444c0.392-0.492,0.833-0.968,1.294-1.48c0.488-0.462,1.017-0.917,1.579-1.375
		c1.101-0.969,2.446-1.67,3.847-2.449c1.45-0.613,2.988-1.278,4.637-1.586c1.632-0.424,3.343-0.524,5.05-0.604
		c1.707,0.078,3.419,0.169,5.053,0.591c1.649,0.304,3.189,0.973,4.64,1.581c1.403,0.778,2.749,1.478,3.851,2.448
		c0.561,0.459,1.091,0.915,1.58,1.375c0.461,0.513,0.9,0.993,1.294,1.482c0.38,0.509,0.776,0.928,1.065,1.437
		c0.29,0.507,0.572,0.961,0.8,1.421c0.227,0.461,0.447,0.867,0.613,1.276c0.151,0.426,0.285,0.813,0.384,1.178
		c0.219,0.706,0.31,1.314,0.394,1.694c0.074,0.393,0.09,0.617,0.09,0.617s-0.239-0.006-0.642-0.045
		c-0.392-0.051-1-0.076-1.672-0.174c-0.348-0.036-0.703-0.1-1.094-0.152c-0.416-0.02-0.826-0.077-1.272-0.112
		c-0.875-0.092-1.788-0.229-2.791-0.269c-0.493-0.032-0.972-0.104-1.472-0.145c-0.517-0.007-1.028-0.033-1.535-0.071
		c-0.993-0.129-2.073-0.053-3.076-0.179c-1.055,0.038-2.064-0.091-3.109-0.059c-1.028-0.077-2.068,0.005-3.099-0.068
		c-1.031,0.07-2.071-0.02-3.101,0.055c-1.046-0.037-2.056,0.097-3.113,0.054c-1.004,0.124-2.086,0.047-3.079,0.177
		c-0.507,0.038-1.018,0.066-1.536,0.071c-0.5,0.041-0.976,0.118-1.472,0.148c-1.023,0.055-1.874,0.152-2.728,0.226
		c-0.448,0.035-0.868,0.067-1.256,0.096c-0.414,0.075-0.792,0.158-1.151,0.205c-0.697,0.123-1.307,0.152-1.694,0.202
		C185.163,260.695,184.933,260.695,184.933,260.695z"/>
</g>
<path style="fill:#4D4D4D;" d="M307.307,306.215c-4.774,0-8.644-3.87-8.644-8.644v-13.825c0-4.774,3.87-8.644,8.644-8.644
	s8.644,3.87,8.644,8.644v13.825C315.95,302.345,312.08,306.215,307.307,306.215z"/>
<path style="fill:#E0B394;" d="M269.254,271.068v40.914c0,7.32-5.934,13.254-13.254,13.254l0,0c-7.32,0-13.254-5.934-13.254-13.254
	v-40.914"/>
<g>
</g>
<g>
</g>
<g>
</g>
<g>
</g>
<g>
</g>
<g>
</g>
<g>
</g>
<g>
</g>
<g>
</g>
<g>
</g>
<g>
</g>
<g>
</g>
<g>
</g>
<g>
</g>
<g>
</g>
</svg>
