<?xml version="1.0" encoding="iso-8859-1"?>
<!-- Generator: Adobe Illustrator 19.0.0, SVG Export Plug-In . SVG Version: 6.00 Build 0)  -->
<svg version="1.1" id="Layer_1" xmlns="http://www.w3.org/2000/svg" xmlns:xlink="http://www.w3.org/1999/xlink" x="0px" y="0px"
	 viewBox="0 0 512 512" style="enable-background:new 0 0 512 512;" xml:space="preserve">
<path style="fill:#F95428;" d="M444.339,511.996h37.51v-93.51c0-7.899-6.404-14.304-14.304-14.304h-23.206V511.996z"/>
<rect x="429.31" y="167.426" style="fill:#B3B3B3;" width="17.538" height="159.593"/>
<polyline style="fill:#F9C573;" points="151.009,76.259 75.617,76.259 113.889,13.678 135.593,49.167 "/>
<rect x="56.982" y="70.074" style="fill:#E2AA59;" width="114.521" height="441.926"/>
<g>
	<path style="fill:#F9C573;" d="M94.355,490.119c-4.843,0-8.769-3.926-8.769-8.769V305.193c0-4.843,3.926-8.769,8.769-8.769
		c4.843,0,8.769,3.926,8.769,8.769V481.35C103.123,486.193,99.197,490.119,94.355,490.119z"/>
	<path style="fill:#F9C573;" d="M134.132,490.119c-4.843,0-8.769-3.926-8.769-8.769V305.193c0-4.843,3.926-8.769,8.769-8.769
		s8.769,3.926,8.769,8.769V481.35C142.901,486.193,138.975,490.119,134.132,490.119z"/>
</g>
<path style="fill:#F95428;" d="M402.104,435.091V512H147.222v-76.909c0-39.939,32.375-72.314,72.314-72.314h110.265
	C369.729,362.779,402.104,395.152,402.104,435.091z"/>
<g>
	<path style="fill:#E54728;" d="M264.085,362.782h-44.553c-39.934,0-72.309,32.373-72.309,72.309v76.906h44.553v-76.906
		C191.776,395.156,224.151,362.782,264.085,362.782z"/>
	<path style="fill:#E54728;" d="M283.444,376.118V512h-17.538V376.118c0-4.84,3.917-8.769,8.769-8.769
		C279.515,367.349,283.444,371.278,283.444,376.118z"/>
</g>
<rect x="30.151" y="104.051" style="fill:#F9C573;" width="183.631" height="167.473"/>
<circle style="fill:#F2F2F2;" cx="114.614" cy="187.794" r="57.242"/>
<g>
	<rect x="422.88" y="123.582" style="fill:#E6E6E6;" width="30.399" height="52.613"/>
	<rect x="422.88" y="320.004" style="fill:#E6E6E6;" width="30.399" height="191.991"/>
</g>
<g>
	<path style="fill:#E0B394;" d="M151.412,269.421c-14.498-0.643-26.038-12.604-26.038-27.254c0-15.059,12.206-27.277,27.277-27.277
		c1.356,0,2.689,0.094,3.999,0.292"/>
	<path style="fill:#E0B394;" d="M397.898,269.421c14.498-0.643,26.049-12.604,26.049-27.254c0-15.059-12.218-27.277-27.289-27.277
		c-1.356,0-2.701,0.105-3.999,0.292"/>
</g>
<path style="fill:#F7CBA4;" d="M235.201,381.856l-47.994-34.87c-25.362-18.426-39.082-48.897-36.067-80.102l8.325-86.143
	c5.734-59.33,55.591-104.602,115.197-104.602l0,0c59.606,0,109.463,45.272,115.197,104.602l8.325,86.143
	c3.015,31.204-10.704,61.674-36.067,80.102l-47.994,34.87C290.592,398.952,258.731,398.952,235.201,381.856z"/>
<path style="fill:#E0B394;" d="M181.007,283.863c-0.807,13.644,3.636,27.066,12.428,37.531l50.161,61.639
	c2.619,3.122,5.589,5.741,8.804,7.834c-6.033-2.105-11.832-5.121-17.199-9.014l-47.995-34.865
	c-25.36-18.426-39.074-48.895-36.057-80.1l8.313-86.145c5.682-58.751,54.624-103.718,113.469-104.571
	c-36.245,0.877-77.286,35.04-79.426,71.425L181.007,283.863z"/>
<path style="fill:#E2AA59;" d="M274.667,367.355h-1.169c-0.164,0-0.325-0.005-0.486-0.013c-24.17-0.388-44.725-9.307-61.119-26.526
	c-48.183-50.609-43.587-156.042-43.367-160.506l0.43-8.758l17.517,0.861l-0.43,8.758c-0.049,1.016-4.435,102.434,38.572,147.573
	c13.38,14.043,29.567,20.939,49.469,21.072c19.901-0.133,36.088-7.029,49.468-21.071c43.007-45.138,38.621-146.558,38.572-147.577
	l-0.423-8.755l17.511-0.857l0.43,8.755c0.22,4.464,4.816,109.897-43.368,160.506c-16.393,17.219-36.948,26.137-61.118,26.526
	C274.993,367.35,274.83,367.355,274.667,367.355z"/>
<path style="fill:#4D4D4D;" d="M105.848,187.789l8.769-36.703l8.769,36.703c1.157,4.843-1.831,9.707-6.674,10.864
	c-4.843,1.157-9.707-1.831-10.864-6.674C105.51,190.567,105.537,189.112,105.848,187.789z"/>
<path style="fill:#666666;" d="M310.007,0h-68.68c-48.639,0-88.068,39.429-88.068,88.068v57.776
	c0,19.272,15.623,34.895,34.895,34.895H363.18c19.272,0,34.895-15.623,34.895-34.895V88.068C398.076,39.429,358.646,0,310.007,0z"/>
<path style="fill:#4D4D4D;" d="M202.364,145.845V88.068C202.364,39.429,241.794,0,290.433,0h-49.106
	c-48.639,0-88.068,39.429-88.068,88.068v57.776c0,19.273,15.623,34.895,34.895,34.895h49.106
	C217.988,180.74,202.364,165.117,202.364,145.845z"/>
<g>
	<circle style="fill:#E6E6E6;" cx="303.904" cy="487.548" r="8.769"/>
	<circle style="fill:#E6E6E6;" cx="303.904" cy="459.897" r="8.769"/>
	<circle style="fill:#E6E6E6;" cx="303.904" cy="432.246" r="8.769"/>
	<circle style="fill:#E6E6E6;" cx="245.445" cy="487.548" r="8.769"/>
	<circle style="fill:#E6E6E6;" cx="245.445" cy="459.897" r="8.769"/>
	<circle style="fill:#E6E6E6;" cx="245.445" cy="432.246" r="8.769"/>
</g>
<path style="fill:#4D4D4D;" d="M222.618,270.217c-4.843,0-8.769-3.926-8.769-8.769v-14.025c0-4.843,3.926-8.769,8.769-8.769
	s8.769,3.926,8.769,8.769v14.025C231.387,266.291,227.461,270.217,222.618,270.217z"/>
<g>
	<path style="fill:#666666;" d="M306.667,224.09c0,0,0.023-0.233,0.102-0.633c0.09-0.387,0.181-0.998,0.378-1.691
		c0.088-0.358,0.201-0.731,0.331-1.141c0.17-0.416,0.398-0.835,0.64-1.309c0.24-0.477,0.542-0.948,0.861-1.478
		c0.32-0.538,0.703-0.946,1.094-1.465c0.398-0.499,0.845-0.982,1.313-1.501c0.495-0.469,1.031-0.931,1.602-1.395
		c1.117-0.983,2.481-1.694,3.903-2.484c1.471-0.622,3.032-1.297,4.704-1.609c1.656-0.43,3.392-0.532,5.123-0.613
		c1.732,0.079,3.469,0.172,5.126,0.6c1.673,0.309,3.235,0.987,4.707,1.604c1.423,0.789,2.789,1.499,3.906,2.483
		c0.569,0.465,1.107,0.928,1.603,1.395c0.468,0.52,0.913,1.008,1.313,1.504c0.386,0.517,0.787,0.941,1.08,1.458
		c0.295,0.514,0.58,0.975,0.811,1.442c0.23,0.468,0.454,0.879,0.622,1.294c0.153,0.433,0.289,0.824,0.389,1.195
		c0.222,0.717,0.315,1.333,0.4,1.719c0.075,0.399,0.091,0.626,0.091,0.626s-0.242-0.006-0.651-0.046
		c-0.398-0.051-1.015-0.077-1.696-0.177c-0.353-0.036-0.713-0.102-1.11-0.154c-0.422-0.02-0.838-0.078-1.291-0.113
		c-0.887-0.094-1.813-0.233-2.832-0.272c-0.5-0.033-0.986-0.105-1.493-0.147c-0.525-0.007-1.043-0.034-1.557-0.072
		c-1.008-0.131-2.103-0.054-3.121-0.181c-1.07,0.039-2.094-0.092-3.154-0.06c-1.043-0.078-2.098,0.005-3.144-0.069
		c-1.046,0.071-2.101-0.02-3.146,0.056c-1.062-0.037-2.086,0.098-3.158,0.055c-1.018,0.126-2.116,0.048-3.124,0.18
		c-0.514,0.039-1.032,0.067-1.559,0.072c-0.507,0.042-0.99,0.119-1.493,0.15c-1.038,0.056-1.901,0.154-2.767,0.229
		c-0.455,0.035-0.88,0.068-1.274,0.097c-0.42,0.076-0.803,0.16-1.168,0.208c-0.707,0.125-1.326,0.154-1.719,0.205
		C306.901,224.09,306.667,224.09,306.667,224.09z"/>
	<path style="fill:#666666;" d="M202.57,224.09c0,0,0.023-0.233,0.102-0.633c0.09-0.387,0.181-0.998,0.378-1.691
		c0.088-0.358,0.201-0.731,0.331-1.141c0.17-0.416,0.398-0.835,0.64-1.309c0.24-0.477,0.542-0.948,0.861-1.478
		c0.32-0.538,0.703-0.946,1.094-1.465c0.398-0.499,0.845-0.982,1.313-1.501c0.495-0.469,1.031-0.931,1.602-1.395
		c1.117-0.983,2.481-1.694,3.903-2.484c1.471-0.622,3.032-1.297,4.704-1.609c1.656-0.43,3.392-0.532,5.123-0.613
		c1.732,0.079,3.469,0.172,5.126,0.6c1.673,0.309,3.235,0.987,4.707,1.604c1.423,0.789,2.788,1.499,3.906,2.483
		c0.569,0.465,1.107,0.928,1.603,1.395c0.468,0.52,0.913,1.008,1.313,1.504c0.386,0.517,0.787,0.941,1.08,1.458
		c0.295,0.514,0.58,0.975,0.811,1.442c0.23,0.468,0.454,0.879,0.622,1.294c0.153,0.433,0.289,0.824,0.389,1.195
		c0.222,0.717,0.314,1.333,0.4,1.719c0.075,0.399,0.091,0.626,0.091,0.626s-0.242-0.006-0.651-0.046
		c-0.398-0.051-1.015-0.077-1.696-0.177c-0.353-0.036-0.713-0.102-1.11-0.154c-0.422-0.02-0.838-0.078-1.291-0.113
		c-0.887-0.094-1.813-0.233-2.832-0.272c-0.5-0.033-0.986-0.105-1.493-0.147c-0.525-0.007-1.043-0.034-1.557-0.072
		c-1.008-0.131-2.103-0.054-3.121-0.181c-1.07,0.039-2.094-0.092-3.154-0.06c-1.043-0.078-2.098,0.005-3.144-0.069
		c-1.046,0.071-2.101-0.02-3.146,0.056c-1.062-0.037-2.086,0.098-3.158,0.055c-1.018,0.126-2.116,0.048-3.124,0.18
		c-0.514,0.039-1.032,0.067-1.559,0.072c-0.507,0.042-0.99,0.119-1.493,0.15c-1.038,0.056-1.901,0.154-2.767,0.229
		c-0.455,0.035-0.88,0.068-1.274,0.097c-0.42,0.076-0.803,0.16-1.168,0.208c-0.707,0.125-1.326,0.154-1.719,0.205
		C202.804,224.09,202.57,224.09,202.57,224.09z"/>
</g>
<path style="fill:#4D4D4D;" d="M326.715,270.217c-4.843,0-8.769-3.926-8.769-8.769v-14.025c0-4.843,3.926-8.769,8.769-8.769
	s8.769,3.926,8.769,8.769v14.025C335.484,266.291,331.558,270.217,326.715,270.217z"/>
<path style="fill:#E0B394;" d="M288.112,231.639v41.506c0,7.425-6.02,13.446-13.446,13.446l0,0c-7.425,0-13.446-6.02-13.446-13.446
	v-41.506"/>
<path style="fill:#C49270;" d="M292.727,321.008h-36.245c-3.229,0-5.846-2.618-5.846-5.846s2.617-5.846,5.846-5.846h36.245
	c3.229,0,5.846,2.618,5.846,5.846S295.956,321.008,292.727,321.008z"/>
<g>
</g>
<g>
</g>
<g>
</g>
<g>
</g>
<g>
</g>
<g>
</g>
<g>
</g>
<g>
</g>
<g>
</g>
<g>
</g>
<g>
</g>
<g>
</g>
<g>
</g>
<g>
</g>
<g>
</g>
</svg>
