<?xml version="1.0" encoding="iso-8859-1"?>
<!-- Generator: Adobe Illustrator 19.0.0, SVG Export Plug-In . SVG Version: 6.00 Build 0)  -->
<svg version="1.1" id="Layer_1" xmlns="http://www.w3.org/2000/svg" xmlns:xlink="http://www.w3.org/1999/xlink" x="0px" y="0px"
	 viewBox="0 0 512.001 512.001" style="enable-background:new 0 0 512.001 512.001;" xml:space="preserve">
<path style="fill:#3B607F;" d="M409.978,428.828c-50.258,0-91.146-40.888-91.146-91.146s40.888-91.146,91.146-91.146
	s91.146,40.888,91.146,91.146S460.236,428.828,409.978,428.828z M409.978,263.791c-40.743,0-73.891,33.147-73.891,73.891
	c0,40.743,33.147,73.891,73.891,73.891s73.891-33.147,73.891-73.891C483.869,296.938,450.721,263.791,409.978,263.791z"/>
<path style="fill:#4A6F93;" d="M391.573,461.038c-50.258,0-91.146-40.888-91.146-91.146s40.888-91.146,91.146-91.146
	s91.146,40.888,91.146,91.146S441.83,461.038,391.573,461.038z M391.573,296.001c-40.743,0-73.891,33.147-73.891,73.891
	s33.147,73.891,73.891,73.891s73.891-33.147,73.891-73.891S432.316,296.001,391.573,296.001z"/>
<g>
	<path style="fill:#E0B394;" d="M141.842,239.187c-14.264-0.633-25.618-12.401-25.618-26.815c0-14.817,12.01-26.838,26.838-26.838
		c1.334,0,2.646,0.092,3.934,0.288"/>
	<path style="fill:#E0B394;" d="M384.361,239.187c14.264-0.633,25.63-12.401,25.63-26.815c0-14.817-12.021-26.838-26.849-26.838
		c-1.334,0-2.657,0.104-3.934,0.288"/>
</g>
<path style="fill:#666666;" d="M388.499,407.569v104.429H137.722V407.569c0-39.296,31.853-71.138,71.149-71.138h108.49
	C356.646,336.431,388.499,368.273,388.499,407.569z"/>
<g>
	<path style="fill:#4D4D4D;" d="M252.702,336.426h-43.835c-39.291,0-71.145,31.852-71.145,71.145v104.43h43.835V407.57
		C181.557,368.278,213.411,336.426,252.702,336.426z"/>
	<path style="fill:#4D4D4D;" d="M271.738,336.431v175.567h-17.255V336.431c0-4.774,3.865-8.628,8.628-8.628
		C267.873,327.803,271.738,331.657,271.738,336.431z"/>
</g>
<path style="fill:#F7CBA4;" d="M349.157,320.89l-47.222,34.304c-23.157,16.818-54.504,16.818-77.649,0l-47.222-34.304
	c-24.951-18.13-38.456-48.119-35.488-78.811l6.626-68.596l1.564-16.162c1.795-18.578,7.995-35.764,17.508-50.558
	c20.338-31.669,55.861-52.364,95.836-52.364c29.322,0,56.252,11.135,76.544,29.564c7.374,6.695,13.873,14.356,19.291,22.8
	c9.513,14.794,15.714,31.98,17.508,50.558l1.564,16.162l6.626,68.596C387.602,272.77,374.108,302.76,349.157,320.89z"/>
<g>
	<path style="fill:#E0B394;" d="M170.961,258.778c-0.794,13.425,3.578,26.631,12.228,36.926l49.354,60.647
		c2.577,3.071,5.499,5.648,8.662,7.707c-5.936-2.071-11.642-5.039-16.922-8.869l-47.222-34.304
		c-24.951-18.13-38.445-48.108-35.477-78.811l8.179-84.758c5.591-57.805,53.744-102.048,111.642-102.888
		c-35.661,0.863-76.042,34.476-78.147,70.275L170.961,258.778z"/>
	<path style="fill:#E0B394;" d="M378.019,173.484H148.202l1.564-16.162c1.795-18.578,7.995-35.764,17.508-50.558h191.672
		c9.513,14.794,15.714,31.98,17.508,50.558L378.019,173.484z"/>
</g>
<path style="fill:#666666;" d="M375.697,0c-75.059,0-150.12,0-225.179,0c15.068,48.981,15.068,101.36,0,150.341
	c75.059,0,150.12,0,225.179,0C360.628,101.36,360.628,48.981,375.697,0z"/>
<path style="fill:#4D4D4D;" d="M197.093,0c-15.525,0-31.05,0-46.575,0c15.068,48.981,15.068,101.36,0,150.341
	c15.525,0,31.05,0,46.575,0C205.927,101.36,205.927,48.981,197.093,0z"/>
<g>
	<polygon style="fill:#F9C573;" points="263.111,399.632 212.719,428.726 212.719,370.539 	"/>
	<polygon style="fill:#F9C573;" points="263.111,399.632 313.503,428.726 313.503,370.539 	"/>
	<path style="fill:#F9C573;" d="M375.698,150.338H150.516c3.486-11.342,6.166-22.869,8.029-34.488h209.065l0.046-0.012
		C369.52,127.469,372.212,138.996,375.698,150.338z"/>
</g>
<path style="fill:#E2AF66;" d="M201.81,115.851c-1.104,11.619-2.669,23.145-4.716,34.488h-46.578
	c3.486-11.342,6.166-22.869,8.029-34.488H201.81z"/>
<path style="fill:#666666;" d="M411.851,158.97H114.364c-4.765,0-8.628-3.863-8.628-8.628c0-4.765,3.863-8.628,8.628-8.628h297.487
	c4.765,0,8.628,3.863,8.628,8.628C420.479,155.107,416.616,158.97,411.851,158.97z"/>
<rect x="62.927" y="324.687" style="fill:#4A6F93;" width="17.255" height="153.561"/>
<path style="fill:#4D4D4D;" d="M125.907,318.366H86.83l27.631-27.631c2.471-2.471,2.471-6.477,0-8.947
	c-2.471-2.47-6.476-2.47-8.947,0l-27.631,27.631v-39.077c0-3.495-2.832-6.327-6.327-6.327c-3.495,0-6.327,2.832-6.327,6.327v39.076
	l-27.631-27.631c-2.471-2.47-6.476-2.47-8.947,0c-2.471,2.471-2.471,6.477,0,8.947l27.631,27.631H17.204
	c-3.495,0-6.327,2.832-6.327,6.327c0,3.495,2.832,6.327,6.327,6.327h39.077l-7.974,7.974c-2.471,2.471-2.471,6.477,0,8.947
	c1.235,1.236,2.854,1.853,4.474,1.853s3.238-0.618,4.474-1.853l14.301-14.301l14.301,14.301c1.235,1.236,2.854,1.853,4.474,1.853
	c1.62,0,3.238-0.618,4.474-1.853c2.471-2.471,2.471-6.476,0-8.947l-7.974-7.974h39.077c3.495,0,6.327-2.832,6.327-6.327
	C132.235,321.197,129.401,318.366,125.907,318.366z"/>
<circle style="fill:#F9C573;" cx="263.109" cy="399.632" r="14.891"/>
<path style="fill:#F2F2F2;" d="M308.141,273.973c0,0-0.656,1.611-2.036,4.153c-0.334,0.656-0.725,1.346-1.162,2.094
	c-0.518,0.736-1.116,1.484-1.76,2.324c-0.644,0.84-1.38,1.691-2.163,2.634c-0.276,0.357-0.575,0.656-0.897,0.966
	c-0.115,0.115-0.242,0.23-0.368,0.345c-0.449,0.414-0.909,0.851-1.38,1.288c-0.943,0.886-1.967,1.76-3.037,2.68
	c-1.127,0.828-2.335,1.611-3.578,2.462c-0.621,0.426-1.265,0.84-1.921,1.254c-0.656,0.391-1.357,0.713-2.071,1.07
	c-1.403,0.713-2.864,1.403-4.371,2.094c-3.106,1.058-6.338,2.301-9.789,2.818c-3.405,0.794-6.96,0.92-10.503,1.093
	c-3.543-0.173-7.098-0.288-10.503-1.081c-3.451-0.518-6.684-1.76-9.79-2.818c-1.507-0.679-2.968-1.369-4.383-2.082
	c-0.702-0.357-1.403-0.679-2.071-1.07c-0.644-0.426-1.288-0.828-1.91-1.254c-1.242-0.851-2.462-1.645-3.589-2.462
	c-1.07-0.92-2.082-1.806-3.037-2.68c-0.472-0.449-0.92-0.874-1.369-1.3c-0.161-0.15-0.322-0.299-0.483-0.449
	c-0.276-0.276-0.541-0.541-0.771-0.851c-0.748-0.909-1.472-1.749-2.105-2.577c-0.621-0.84-1.231-1.576-1.737-2.312
	c-0.46-0.782-0.886-1.495-1.242-2.151c-1.438-2.623-2.036-4.187-2.036-4.187s1.703,0.518,4.325,1.576
	c0.667,0.253,1.357,0.564,2.128,0.874c0.817,0.242,1.657,0.552,2.554,0.851c0.909,0.299,1.818,0.667,2.784,1.012
	c0.955,0.368,2.036,0.61,3.106,0.932c1.07,0.311,2.14,0.69,3.255,1.024c1.162,0.253,2.324,0.552,3.52,0.84
	c0.598,0.138,1.185,0.311,1.783,0.472c0.61,0.138,1.242,0.219,1.864,0.345c1.254,0.219,2.508,0.472,3.762,0.759
	c2.611,0.242,5.188,0.817,7.88,0.92c2.657,0.345,5.372,0.253,8.064,0.414c2.703-0.161,5.418-0.058,8.075-0.403
	c2.692-0.092,5.269-0.679,7.88-0.92c1.254-0.276,2.508-0.529,3.762-0.748c0.621-0.127,1.254-0.207,1.864-0.345
	c0.598-0.173,1.196-0.334,1.783-0.472c1.196-0.288,2.358-0.598,3.52-0.84c1.127-0.334,2.197-0.713,3.267-1.024
	c1.058-0.322,2.163-0.575,3.083-0.932c0.943-0.322,1.829-0.679,2.726-0.955c0.886-0.299,1.714-0.598,2.531-0.84
	c0.805-0.345,1.518-0.679,2.197-0.943C306.473,274.456,308.141,273.973,308.141,273.973z"/>
<g>
	<path style="fill:#4D4D4D;" d="M300.123,286.143c-0.115,0.115-0.242,0.23-0.368,0.345c-0.449,0.414-0.909,0.851-1.38,1.288
		c-0.943,0.886-1.967,1.76-3.037,2.68c-1.127,0.828-2.335,1.611-3.578,2.462c-0.621,0.426-1.265,0.84-1.921,1.254
		c-0.656,0.391-1.357,0.713-2.071,1.07c-1.403,0.713-2.864,1.403-4.371,2.094c-3.106,1.058-6.338,2.301-9.789,2.818
		c-3.405,0.794-6.96,0.92-10.503,1.093c-3.543-0.173-7.098-0.288-10.503-1.081c-3.451-0.518-6.684-1.76-9.79-2.818
		c-1.507-0.679-2.968-1.369-4.383-2.082c-0.702-0.357-1.403-0.679-2.071-1.07c-0.644-0.426-1.288-0.828-1.91-1.254
		c-1.242-0.851-2.462-1.645-3.589-2.462c-1.07-0.92-2.082-1.806-3.037-2.68c-0.472-0.449-0.92-0.874-1.369-1.3
		c-0.161-0.15-0.322-0.299-0.483-0.449c0.368,0.127,0.736,0.253,1.116,0.38c0.909,0.299,1.818,0.656,2.784,1.001
		c0.955,0.38,2.036,0.621,3.106,0.943c1.07,0.311,2.14,0.679,3.255,1.024c1.162,0.242,2.324,0.552,3.52,0.84
		c0.598,0.138,1.185,0.299,1.783,0.46c0.61,0.138,1.242,0.219,1.864,0.345c1.254,0.219,2.508,0.483,3.762,0.759
		c2.611,0.253,5.188,0.828,7.88,0.92c2.657,0.357,5.372,0.253,8.064,0.426c2.703-0.161,5.418-0.057,8.075-0.414
		c2.692-0.092,5.269-0.667,7.88-0.909c1.254-0.276,2.508-0.541,3.762-0.759c0.621-0.127,1.254-0.207,1.864-0.345
		c0.598-0.161,1.196-0.322,1.783-0.46c1.196-0.288,2.358-0.598,3.52-0.84c1.127-0.345,2.197-0.725,3.267-1.024
		c1.058-0.322,2.163-0.587,3.083-0.932c0.943-0.334,1.829-0.679,2.726-0.966C299.421,286.385,299.778,286.258,300.123,286.143z"/>
	<path style="fill:#4D4D4D;" d="M211.898,235.438c-4.765,0-8.628-3.863-8.628-8.628v-13.8c0-4.765,3.863-8.628,8.628-8.628
		s8.628,3.863,8.628,8.628v13.8C220.525,231.575,216.663,235.438,211.898,235.438z"/>
	<path style="fill:#4D4D4D;" d="M314.317,235.438c-4.765,0-8.628-3.863-8.628-8.628v-13.8c0-4.765,3.863-8.628,8.628-8.628
		c4.765,0,8.628,3.863,8.628,8.628v13.8C322.945,231.575,319.082,235.438,314.317,235.438z"/>
</g>
<path style="fill:#E0B394;" d="M276.336,200.357v40.838c0,7.306-5.923,13.229-13.229,13.229l0,0
	c-7.306,0-13.229-5.923-13.229-13.229v-40.838"/>
<g>
	<path style="fill:#666666;" d="M294.592,188.545c0,0,0.023-0.229,0.1-0.622c0.089-0.381,0.178-0.982,0.372-1.663
		c0.086-0.352,0.198-0.719,0.326-1.123c0.167-0.41,0.391-0.821,0.629-1.288c0.236-0.469,0.534-0.933,0.847-1.454
		c0.315-0.529,0.691-0.931,1.077-1.441c0.391-0.491,0.832-0.966,1.292-1.477c0.487-0.461,1.015-0.916,1.576-1.372
		c1.099-0.967,2.441-1.667,3.84-2.445c1.447-0.612,2.983-1.276,4.628-1.583c1.629-0.423,3.337-0.523,5.041-0.603
		c1.704,0.078,3.413,0.169,5.043,0.59c1.646,0.304,3.183,0.971,4.631,1.578c1.4,0.777,2.744,1.475,3.843,2.443
		c0.56,0.458,1.089,0.913,1.577,1.372c0.46,0.512,0.898,0.992,1.292,1.479c0.38,0.508,0.774,0.926,1.063,1.434
		c0.29,0.506,0.571,0.959,0.798,1.418c0.227,0.46,0.446,0.865,0.612,1.273c0.151,0.426,0.284,0.811,0.383,1.176
		c0.219,0.705,0.309,1.311,0.393,1.691c0.074,0.392,0.09,0.615,0.09,0.615s-0.238-0.006-0.641-0.045
		c-0.391-0.051-0.999-0.076-1.669-0.174c-0.347-0.036-0.702-0.1-1.092-0.152c-0.415-0.02-0.825-0.077-1.27-0.112
		c-0.873-0.092-1.784-0.229-2.786-0.268c-0.492-0.032-0.97-0.104-1.469-0.145c-0.517-0.007-1.026-0.033-1.532-0.071
		c-0.992-0.129-2.069-0.053-3.07-0.178c-1.053,0.038-2.06-0.091-3.104-0.059c-1.026-0.077-2.064,0.005-3.093-0.068
		c-1.03,0.07-2.067-0.02-3.096,0.055c-1.044-0.037-2.052,0.097-3.107,0.054c-1.002,0.124-2.082,0.047-3.074,0.177
		c-0.506,0.038-1.016,0.066-1.533,0.071c-0.499,0.041-0.974,0.117-1.469,0.147c-1.022,0.055-1.87,0.152-2.723,0.225
		c-0.447,0.035-0.866,0.067-1.254,0.095c-0.413,0.075-0.79,0.158-1.149,0.205c-0.696,0.123-1.305,0.152-1.691,0.201
		C294.822,188.545,294.592,188.545,294.592,188.545z"/>
	<path style="fill:#666666;" d="M192.172,188.545c0,0,0.023-0.229,0.1-0.622c0.089-0.381,0.178-0.982,0.372-1.663
		c0.086-0.352,0.198-0.719,0.326-1.123c0.167-0.41,0.391-0.821,0.629-1.288c0.236-0.469,0.534-0.933,0.847-1.454
		c0.315-0.529,0.691-0.931,1.077-1.441c0.391-0.491,0.832-0.966,1.292-1.477c0.487-0.461,1.015-0.916,1.576-1.372
		c1.099-0.967,2.441-1.667,3.84-2.445c1.447-0.612,2.983-1.276,4.628-1.583c1.629-0.423,3.337-0.523,5.041-0.603
		c1.704,0.078,3.413,0.169,5.043,0.59c1.646,0.304,3.183,0.971,4.631,1.578c1.4,0.777,2.744,1.475,3.843,2.443
		c0.56,0.458,1.089,0.913,1.577,1.372c0.46,0.512,0.898,0.992,1.292,1.479c0.38,0.508,0.774,0.926,1.063,1.434
		c0.29,0.506,0.571,0.959,0.798,1.418c0.227,0.46,0.446,0.865,0.612,1.273c0.151,0.426,0.284,0.811,0.383,1.176
		c0.219,0.705,0.309,1.311,0.393,1.691c0.074,0.392,0.09,0.615,0.09,0.615s-0.238-0.006-0.641-0.045
		c-0.391-0.051-0.999-0.076-1.669-0.174c-0.347-0.036-0.702-0.1-1.092-0.152c-0.415-0.02-0.825-0.077-1.27-0.112
		c-0.873-0.092-1.784-0.229-2.786-0.268c-0.492-0.032-0.97-0.104-1.469-0.145c-0.517-0.007-1.026-0.033-1.532-0.071
		c-0.992-0.129-2.069-0.053-3.07-0.178c-1.053,0.038-2.06-0.091-3.104-0.059c-1.026-0.077-2.064,0.005-3.093-0.068
		c-1.03,0.07-2.067-0.02-3.096,0.055c-1.045-0.037-2.052,0.097-3.107,0.054c-1.002,0.124-2.082,0.047-3.074,0.177
		c-0.506,0.038-1.016,0.066-1.533,0.071c-0.499,0.041-0.974,0.117-1.469,0.147c-1.022,0.055-1.87,0.152-2.723,0.225
		c-0.447,0.035-0.866,0.067-1.254,0.095c-0.413,0.075-0.79,0.158-1.149,0.205c-0.696,0.123-1.304,0.152-1.691,0.201
		C192.402,188.545,192.172,188.545,192.172,188.545z"/>
</g>
<g>
</g>
<g>
</g>
<g>
</g>
<g>
</g>
<g>
</g>
<g>
</g>
<g>
</g>
<g>
</g>
<g>
</g>
<g>
</g>
<g>
</g>
<g>
</g>
<g>
</g>
<g>
</g>
<g>
</g>
</svg>
