<?xml version="1.0" encoding="iso-8859-1"?>
<!-- Generator: Adobe Illustrator 19.0.0, SVG Export Plug-In . SVG Version: 6.00 Build 0)  -->
<svg version="1.1" id="Layer_1" xmlns="http://www.w3.org/2000/svg" xmlns:xlink="http://www.w3.org/1999/xlink" x="0px" y="0px"
	 viewBox="0 0 512.001 512.001" style="enable-background:new 0 0 512.001 512.001;" xml:space="preserve">
<polygon style="fill:#F95428;" points="67.434,256.236 39.338,230.01 39.338,306.644 67.434,306.644 "/>
<path style="fill:#5D9EBA;" d="M286.837,325.561H171.635c-41.723,0-75.548,33.823-75.548,75.548V512h266.296V401.108
	C362.384,359.384,328.56,325.561,286.837,325.561z"/>
<path style="fill:#508DA3;" d="M218.183,325.561h-46.548c-41.723,0-75.548,33.823-75.548,75.548v110.893h46.548V401.108
	C142.635,359.384,176.46,325.561,218.183,325.561z"/>
<path style="fill:#F7CBA4;" d="M320.453,333.437l-91.213,89.588l-91.225-89.588c1.649-0.818,3.323-1.588,5.045-2.284
	c8.82-3.604,18.458-5.595,28.572-5.595h115.204c10.114,0,19.765,1.991,28.572,5.595
	C317.118,331.849,318.804,332.619,320.453,333.437z"/>
<path style="fill:#E0B394;" d="M315.408,331.153l-6.193,4.495l-3.433,2.492l-35.327,25.677c-24.577,17.859-57.865,17.859-82.454,0
	l-44.941-32.664c8.82-3.604,18.458-5.595,28.572-5.595h115.204C296.951,325.558,306.601,327.549,315.408,331.153z"/>
<path style="fill:#E070B3;" d="M418.354,412.671h-55.838c-6.511,0-11.788,5.277-11.788,11.788v75.753
	c0,6.511,5.277,11.788,11.788,11.788h55.838c6.511,0,11.788-5.277,11.788-11.788v-75.753
	C430.141,417.95,424.864,412.671,418.354,412.671z"/>
<path style="fill:#4A6F93;" d="M397.078,333.304h-13.287c-6.88,0-12.457,5.578-12.457,12.457v66.911h38.2v-66.911
	C409.535,338.88,403.958,333.304,397.078,333.304z"/>
<g>
	<rect x="31.236" y="300.536" style="fill:#FCEA81;" width="44.305" height="60.442"/>
	<path style="fill:#FCEA81;" d="M468.1,55.688c-2.344,0-4.689-0.894-6.478-2.684c-3.578-3.578-3.578-9.378,0-12.956L477.79,23.88
		c3.578-3.578,9.379-3.579,12.956,0c3.578,3.578,3.578,9.378,0,12.956l-16.168,16.168C472.789,54.793,470.445,55.688,468.1,55.688z"
		/>
	<path style="fill:#FCEA81;" d="M419.918,103.869c-2.344,0-4.689-0.894-6.478-2.684c-3.578-3.578-3.578-9.378,0-12.956
		l16.168-16.168c3.578-3.578,9.379-3.579,12.956,0c3.578,3.578,3.578,9.378,0,12.956l-16.168,16.168
		C424.608,102.975,422.262,103.869,419.918,103.869z"/>
	<path style="fill:#FCEA81;" d="M484.268,103.869c-2.344,0-4.689-0.894-6.478-2.684l-16.168-16.168
		c-3.578-3.578-3.578-9.379,0-12.956c3.578-3.578,9.379-3.578,12.956,0l16.168,16.168c3.578,3.578,3.578,9.379,0,12.956
		C488.958,102.975,486.612,103.869,484.268,103.869z"/>
	<path style="fill:#FCEA81;" d="M436.087,55.688c-2.344,0-4.689-0.894-6.478-2.684l-16.168-16.168
		c-3.578-3.578-3.578-9.379,0-12.956s9.379-3.579,12.956,0l16.168,16.168c3.578,3.578,3.578,9.379,0,12.956
		C440.775,54.793,438.431,55.688,436.087,55.688z"/>
</g>
<path style="fill:#4A6F93;" d="M74.887,344.835H31.884c-7.352,0-13.312,5.96-13.312,13.312v75.984
	c0,7.352,5.96,13.312,13.312,13.312h43.002c7.352,0,13.312-5.96,13.312-13.312v-75.984C88.2,350.796,82.24,344.835,74.887,344.835z"
	/>
<path style="fill:#E0B394;" d="M100.214,222.304c-15.147-0.672-27.204-13.168-27.204-28.474c0-15.733,12.753-28.499,28.499-28.499
	c1.417,0,2.81,0.098,4.178,0.305"/>
<path style="fill:#F7CBA4;" d="M357.093,239.439c-1.527,27.485-15.294,53.149-37.966,69.616l-11.385,8.27l-3.433,2.492
	l-35.327,25.677c-24.577,17.859-57.864,17.859-82.454,0l-50.144-36.439c-26.495-19.252-40.824-51.085-37.672-83.688l8.697-90.003
	c0.244-2.59,0.586-5.155,0.989-7.684c9.369-58.17,59.685-101.596,119.357-101.596c31.137,0,59.733,11.825,81.294,31.394
	c21.548,19.569,36.072,46.895,39.065,77.886l8.697,90.003C357.264,230.082,357.362,234.785,357.093,239.439z"/>
<path style="fill:#E8BA97;" d="M129.912,243.106c-0.843,14.255,3.799,28.279,12.985,39.212l52.408,64.4
	c2.736,3.262,5.839,5.998,9.198,8.184c-6.303-2.199-12.362-5.35-17.969-9.418l-50.144-36.426
	c-26.495-19.252-40.824-51.085-37.672-83.688l8.685-90.003c5.937-61.383,57.07-108.363,118.551-109.255
	c-37.868,0.916-80.748,36.61-82.983,74.624L129.912,243.106z"/>
<path style="fill:#7F7DAD;" d="M130.045,134.997c0,0-5.901,68.801-30.435,81.125l5.564-57.659l-1.393-36.292L130.045,134.997z"/>
<path style="fill:#9691C6;" d="M329.975,299.82c19.936-59.465,17.505-163.308-78.997-157.2
	c-24.712,1.564-44.537-9.039-58.475-20.497c-15.159-12.448-23.368-25.921-23.368-25.921s-28.975,52.441-63.96,62.262l-0.696,7.17
	h-0.012c-1.368-0.208-2.761-0.305-4.178-0.305c-5.558,0-10.75,1.588-15.135,4.349c-15.428-30.868-8.563-77.165,3.359-100.35
	c21.988-42.754,69.518-21.108,69.518-21.108c0-11.397,5.668-20.229,13.767-27.045c6.352-5.344,14.2-9.445,21.989-12.559
	c18.383-7.348,38.32-9.81,58.042-8.092c111.423,9.708,140.518,99.226,146.211,121.44C423.973,223.217,329.975,299.82,329.975,299.82
	z"/>
<path style="fill:#7F7DAD;" d="M192.502,122.122c-15.159-12.448-23.368-25.921-23.368-25.921s-28.975,52.441-63.96,62.262
	l-0.696,7.17h-0.012c-1.368-0.208-2.761-0.305-4.178-0.305c-5.558,0-10.75,1.588-15.135,4.349
	c-15.428-30.868-8.563-77.165,3.359-100.35c21.988-42.754,69.518-21.108,69.518-21.108c0-11.397,5.668-20.229,13.767-27.045
	C138.425,72.259,192.502,122.122,192.502,122.122z"/>
<g>
	<path style="fill:#4D4D4D;" d="M173.383,235.594c-5.061,0-9.162-4.102-9.162-9.162v-14.654c0-5.06,4.101-9.162,9.162-9.162
		c5.061,0,9.162,4.102,9.162,9.162v14.654C182.544,231.492,178.443,235.594,173.383,235.594z"/>
	<path style="fill:#4D4D4D;" d="M282.142,235.594c-5.061,0-9.162-4.102-9.162-9.162v-14.654c0-5.06,4.101-9.162,9.162-9.162
		c5.061,0,9.162,4.102,9.162,9.162v14.654C291.303,231.492,287.201,235.594,282.142,235.594z"/>
</g>
<path style="fill:#E0B394;" d="M237.338,236.996h-0.417v-18.934c0-5.06-4.101-9.162-9.162-9.162c-5.061,0-9.162,4.102-9.162,9.162
	v18.934h-0.417c-5.061,0-9.162,4.102-9.162,9.162s4.101,9.162,9.162,9.162h19.156c5.061,0,9.162-4.102,9.162-9.162
	S242.399,236.996,237.338,236.996z"/>
<path style="fill:#F2F2F2;" d="M263.833,278.434c0,0-0.525,1.71-1.631,4.41c-0.268,0.696-0.58,1.429-0.931,2.223
	c-0.414,0.782-0.894,1.576-1.41,2.468c-0.515,0.892-1.105,1.796-1.732,2.797c-0.221,0.379-0.461,0.696-0.718,1.026
	c-0.092,0.122-0.193,0.244-0.294,0.366c-0.359,0.44-0.728,0.904-1.105,1.368c-0.756,0.941-1.576,1.869-2.432,2.846
	c-0.903,0.88-1.87,1.71-2.866,2.614c-0.497,0.452-1.014,0.892-1.539,1.331c-0.525,0.415-1.087,0.757-1.659,1.136
	c-1.124,0.757-2.294,1.49-3.501,2.223c-2.488,1.124-5.077,2.443-7.841,2.993c-2.728,0.843-5.574,0.977-8.413,1.16
	c-2.838-0.183-5.685-0.305-8.413-1.148c-2.764-0.55-5.353-1.869-7.841-2.993c-1.207-0.721-2.377-1.454-3.511-2.211
	c-0.562-0.379-1.124-0.721-1.659-1.136c-0.515-0.452-1.032-0.88-1.529-1.331c-0.996-0.904-1.972-1.747-2.874-2.614
	c-0.856-0.977-1.667-1.918-2.432-2.846c-0.377-0.476-0.737-0.928-1.097-1.38c-0.129-0.159-0.258-0.318-0.387-0.476
	c-0.221-0.293-0.434-0.574-0.617-0.904c-0.599-0.965-1.18-1.857-1.686-2.736c-0.497-0.892-0.986-1.674-1.391-2.455
	c-0.369-0.831-0.71-1.588-0.996-2.284c-1.152-2.785-1.631-4.446-1.631-4.446s1.363,0.55,3.464,1.674
	c0.535,0.269,1.087,0.599,1.704,0.928c0.655,0.257,1.327,0.586,2.046,0.904c0.728,0.318,1.456,0.708,2.229,1.075
	c0.765,0.391,1.631,0.647,2.488,0.989c0.858,0.33,1.714,0.733,2.608,1.087c0.931,0.269,1.862,0.586,2.819,0.892
	c0.479,0.147,0.949,0.33,1.428,0.501c0.489,0.147,0.996,0.232,1.493,0.366c1.004,0.232,2.008,0.501,3.014,0.806
	c2.091,0.257,4.156,0.867,6.312,0.977c2.128,0.366,4.303,0.269,6.46,0.44c2.166-0.171,4.34-0.061,6.468-0.428
	c2.156-0.098,4.22-0.721,6.312-0.977c1.004-0.293,2.008-0.562,3.014-0.794c0.497-0.134,1.004-0.22,1.493-0.366
	c0.479-0.183,0.959-0.354,1.428-0.501c0.959-0.305,1.889-0.635,2.819-0.892c0.903-0.354,1.76-0.757,2.617-1.087
	c0.848-0.342,1.732-0.611,2.47-0.989c0.756-0.342,1.465-0.721,2.184-1.014c0.71-0.318,1.373-0.635,2.027-0.892
	c0.645-0.366,1.217-0.721,1.76-1.002C262.497,278.947,263.833,278.434,263.833,278.434z"/>
<path style="fill:#4D4D4D;" d="M257.41,291.357c-0.092,0.122-0.193,0.244-0.294,0.366c-0.359,0.44-0.728,0.904-1.105,1.368
	c-0.756,0.941-1.576,1.869-2.432,2.846c-0.903,0.88-1.87,1.71-2.866,2.614c-0.497,0.452-1.014,0.892-1.539,1.331
	c-0.525,0.415-1.087,0.757-1.659,1.136c-1.124,0.757-2.294,1.49-3.501,2.223c-2.488,1.124-5.077,2.443-7.841,2.993
	c-2.728,0.843-5.574,0.977-8.413,1.16c-2.838-0.183-5.685-0.305-8.413-1.148c-2.764-0.55-5.353-1.869-7.841-2.993
	c-1.207-0.721-2.377-1.454-3.511-2.211c-0.562-0.379-1.124-0.721-1.659-1.136c-0.515-0.452-1.032-0.88-1.529-1.331
	c-0.996-0.904-1.972-1.747-2.874-2.614c-0.856-0.977-1.667-1.918-2.432-2.846c-0.377-0.476-0.737-0.928-1.097-1.38
	c-0.129-0.159-0.258-0.318-0.387-0.476c0.294,0.134,0.59,0.269,0.894,0.403c0.728,0.318,1.456,0.696,2.229,1.063
	c0.765,0.403,1.631,0.66,2.488,1.002c0.858,0.33,1.714,0.721,2.608,1.087c0.931,0.257,1.862,0.586,2.819,0.892
	c0.479,0.147,0.949,0.318,1.428,0.489c0.489,0.147,0.996,0.232,1.493,0.366c1.004,0.232,2.008,0.513,3.014,0.806
	c2.091,0.269,4.156,0.88,6.312,0.977c2.128,0.379,4.303,0.269,6.46,0.452c2.166-0.171,4.34-0.061,6.468-0.44
	c2.156-0.098,4.22-0.708,6.312-0.965c1.004-0.293,2.008-0.574,3.014-0.806c0.497-0.134,1.004-0.22,1.493-0.366
	c0.479-0.171,0.959-0.342,1.428-0.489c0.959-0.305,1.889-0.635,2.819-0.892c0.903-0.366,1.76-0.77,2.617-1.087
	c0.848-0.342,1.732-0.623,2.47-0.989c0.756-0.354,1.465-0.721,2.184-1.026C256.848,291.614,257.134,291.48,257.41,291.357z"/>
<g>
	<path style="fill:#666666;" d="M261.195,191.101c0,0,0.024-0.243,0.106-0.661c0.094-0.404,0.189-1.043,0.395-1.766
		c0.092-0.374,0.21-0.763,0.346-1.192c0.177-0.435,0.415-0.872,0.668-1.368c0.25-0.498,0.567-0.991,0.899-1.544
		c0.335-0.562,0.734-0.988,1.143-1.531c0.415-0.522,0.883-1.026,1.372-1.568c0.517-0.49,1.077-0.972,1.673-1.457
		c1.167-1.027,2.592-1.77,4.078-2.596c1.537-0.65,3.167-1.355,4.914-1.681c1.73-0.45,3.544-0.556,5.353-0.64
		c1.809,0.083,3.624,0.18,5.355,0.627c1.748,0.322,3.38,1.031,4.918,1.676c1.487,0.825,2.913,1.566,4.081,2.595
		c0.595,0.486,1.157,0.97,1.675,1.457c0.489,0.544,0.954,1.053,1.372,1.571c0.403,0.54,0.822,0.983,1.129,1.523
		c0.308,0.537,0.606,1.019,0.848,1.506c0.241,0.489,0.474,0.919,0.65,1.352c0.16,0.452,0.302,0.861,0.407,1.248
		c0.232,0.749,0.329,1.393,0.418,1.796c0.078,0.417,0.095,0.654,0.095,0.654s-0.253-0.006-0.68-0.048
		c-0.415-0.054-1.06-0.081-1.772-0.184c-0.369-0.038-0.745-0.106-1.159-0.161c-0.441-0.021-0.876-0.082-1.349-0.118
		c-0.927-0.098-1.895-0.243-2.959-0.285c-0.523-0.034-1.03-0.11-1.56-0.154c-0.548-0.007-1.09-0.035-1.627-0.076
		c-1.053-0.137-2.198-0.056-3.26-0.189c-1.118,0.04-2.188-0.096-3.296-0.062c-1.09-0.082-2.191,0.005-3.285-0.072
		c-1.093,0.075-2.195-0.021-3.287,0.059c-1.109-0.039-2.179,0.103-3.299,0.057c-1.064,0.132-2.211,0.05-3.264,0.188
		c-0.537,0.04-1.079,0.07-1.628,0.076c-0.53,0.044-1.035,0.125-1.56,0.156c-1.085,0.059-1.986,0.161-2.891,0.239
		c-0.475,0.037-0.92,0.071-1.331,0.101c-0.439,0.079-0.839,0.167-1.22,0.217c-0.739,0.131-1.385,0.161-1.796,0.214
		C261.439,191.101,261.195,191.101,261.195,191.101z"/>
	<path style="fill:#666666;" d="M152.436,191.101c0,0,0.024-0.243,0.106-0.661c0.094-0.404,0.189-1.043,0.395-1.766
		c0.092-0.374,0.21-0.763,0.346-1.192c0.177-0.435,0.415-0.872,0.668-1.368c0.25-0.498,0.567-0.991,0.899-1.544
		c0.335-0.562,0.734-0.988,1.143-1.531c0.415-0.522,0.883-1.026,1.372-1.568c0.517-0.49,1.077-0.972,1.674-1.457
		c1.167-1.027,2.592-1.77,4.077-2.596c1.537-0.65,3.167-1.355,4.914-1.681c1.73-0.45,3.544-0.556,5.353-0.64
		c1.809,0.083,3.624,0.18,5.355,0.627c1.748,0.322,3.38,1.031,4.918,1.676c1.487,0.825,2.913,1.566,4.081,2.595
		c0.595,0.486,1.157,0.97,1.675,1.457c0.489,0.544,0.954,1.053,1.372,1.571c0.403,0.54,0.822,0.983,1.129,1.523
		c0.308,0.537,0.606,1.019,0.848,1.506c0.241,0.489,0.474,0.919,0.65,1.352c0.16,0.452,0.302,0.861,0.407,1.248
		c0.232,0.749,0.329,1.393,0.418,1.796c0.078,0.417,0.095,0.654,0.095,0.654s-0.253-0.006-0.68-0.048
		c-0.415-0.054-1.06-0.081-1.772-0.184c-0.369-0.038-0.745-0.106-1.159-0.161c-0.441-0.021-0.876-0.082-1.349-0.118
		c-0.927-0.098-1.895-0.243-2.959-0.285c-0.523-0.034-1.03-0.11-1.56-0.154c-0.548-0.007-1.09-0.035-1.627-0.076
		c-1.053-0.137-2.198-0.056-3.26-0.189c-1.118,0.04-2.188-0.096-3.296-0.062c-1.09-0.082-2.191,0.005-3.285-0.072
		c-1.093,0.075-2.195-0.021-3.287,0.059c-1.109-0.039-2.179,0.103-3.299,0.057c-1.064,0.132-2.211,0.05-3.264,0.188
		c-0.537,0.04-1.079,0.07-1.628,0.076c-0.53,0.044-1.035,0.125-1.56,0.156c-1.085,0.059-1.986,0.161-2.891,0.239
		c-0.475,0.037-0.92,0.071-1.331,0.101c-0.439,0.079-0.839,0.167-1.22,0.217c-0.739,0.131-1.385,0.161-1.796,0.214
		C152.681,191.101,152.436,191.101,152.436,191.101z"/>
</g>
<g>
</g>
<g>
</g>
<g>
</g>
<g>
</g>
<g>
</g>
<g>
</g>
<g>
</g>
<g>
</g>
<g>
</g>
<g>
</g>
<g>
</g>
<g>
</g>
<g>
</g>
<g>
</g>
<g>
</g>
</svg>
