<?xml version="1.0" encoding="iso-8859-1"?>
<!-- Generator: Adobe Illustrator 19.0.0, SVG Export Plug-In . SVG Version: 6.00 Build 0)  -->
<svg version="1.1" id="Layer_1" xmlns="http://www.w3.org/2000/svg" xmlns:xlink="http://www.w3.org/1999/xlink" x="0px" y="0px"
	 viewBox="0 0 512 512" style="enable-background:new 0 0 512 512;" xml:space="preserve">
<path style="fill:#64B4D8;" d="M172.377,486H6.05C2.708,486,0,483.291,0,479.95V358.447h172.377V486z"/>
<path style="fill:#71C5F4;" d="M172.377,478.818H6.05c-3.342,0-6.05-2.709-6.05-6.05V351.265h172.377V478.818z"/>
<rect x="7.629" y="416.822" style="fill:#E0C8A2;" width="169.848" height="53.641"/>
<path style="fill:#FCE8CA;" d="M137.467,327.319c-12.418,0-22.477,10.07-22.477,22.477c0-8.914-5.194-16.625-12.735-20.254
	c-2.949-1.429-6.249-2.223-9.742-2.223H7.629V440.85H85.38c6.271,0,12.089,1.951,16.875,5.285
	c7.7,5.341,12.735,14.244,12.735,24.326c0-16.353,13.257-29.61,29.61-29.61h77.751v-11.102V327.319L137.467,327.319L137.467,327.319
	z"/>
<g>
	<rect x="147.756" y="351.263" style="fill:#999999;" width="56.896" height="12.475"/>
	<rect x="147.756" y="406.809" style="fill:#999999;" width="56.896" height="12.475"/>
	<rect x="147.756" y="379.036" style="fill:#999999;" width="56.896" height="12.475"/>
	<rect x="29.814" y="351.263" style="fill:#999999;" width="56.896" height="12.475"/>
	<rect x="29.814" y="406.809" style="fill:#999999;" width="56.896" height="12.475"/>
	<rect x="29.814" y="379.036" style="fill:#999999;" width="56.896" height="12.475"/>
</g>
<g>
	<path style="fill:#EDD9BE;" d="M114.99,349.796V470.46c0-10.082-5.035-18.984-12.735-24.326V329.542
		C109.796,333.171,114.99,340.883,114.99,349.796z"/>
	<path style="fill:#EDD9BE;" d="M114.99,349.796V470.46c0-10.082,5.035-18.984,12.735-24.326V329.542
		C120.184,333.171,114.99,340.883,114.99,349.796z"/>
</g>
<path style="fill:#71C5F4;" d="M405.557,406.804v94.491H158.333v-94.491c0-34.181,24.45-62.645,56.816-68.871
	c4.309-0.839,8.766-1.27,13.325-1.27h106.953c4.559,0,9.016,0.431,13.325,1.27C381.118,344.159,405.557,372.624,405.557,406.804z"/>
<g>
	<path style="fill:#64B4D8;" d="M271.69,336.668h-43.214c-38.735,0-70.137,31.401-70.137,70.137v94.491h43.214v-94.491
		C201.553,368.069,232.954,336.668,271.69,336.668z"/>
	<rect x="273.444" y="385.216" style="fill:#64B4D8;" width="17.011" height="116.082"/>
	<path style="fill:#64B4D8;" d="M348.752,337.933l-16.33,90.384l-50.477-35.848l-50.466,35.848l-16.33-90.384
		c4.309-0.839,8.766-1.27,13.325-1.27h106.953C339.986,336.663,344.443,337.094,348.752,337.933z"/>
</g>
<circle style="fill:#666666;" cx="309.314" cy="443.427" r="7.561"/>
<path style="fill:#E0B394;" d="M331.301,278.484v63.004c0,27.253-22.097,49.35-49.35,49.35c-27.262,0-49.35-22.097-49.35-49.35
	v-63.004H331.301z"/>
<path style="fill:#F7CBA4;" d="M243.671,355.171l-46.552-33.822c-24.6-17.873-37.908-47.429-34.983-77.695l8.074-83.555
	c5.561-57.548,53.921-101.46,111.736-101.46l0,0c57.815,0,106.175,43.912,111.736,101.46l8.074,83.555
	c2.925,30.267-10.382,59.822-34.983,77.695l-46.552,33.822C297.398,371.753,266.493,371.753,243.671,355.171z"/>
<circle style="fill:#C0E7F9;" cx="84.034" cy="65.299" r="52.325"/>
<path style="fill:#E0B394;" d="M191.105,260.119c-0.783,13.234,3.527,26.253,12.055,36.403l48.654,59.788
	c2.54,3.028,5.421,5.568,8.539,7.598c-5.852-2.041-11.477-4.967-16.682-8.744l-46.553-33.818
	c-24.598-17.873-37.9-47.426-34.974-77.694l8.063-83.557c5.512-56.986,52.983-100.602,110.06-101.43
	c-35.156,0.851-74.965,33.988-77.04,69.28L191.105,260.119z"/>
<circle style="fill:#C0E7F9;" cx="230.327" cy="227.083" r="32.376"/>
<path style="fill:#E0B394;" d="M290.834,253.418h-0.387V235.84c0-4.697-3.807-8.505-8.505-8.505c-4.698,0-8.505,3.808-8.505,8.505
	v17.578h-0.388c-4.698,0-8.505,3.808-8.505,8.505s3.807,8.505,8.505,8.505h17.785c4.698,0,8.505-3.808,8.505-8.505
	S295.532,253.418,290.834,253.418z"/>
<circle style="fill:#C0E7F9;" cx="331.655" cy="227.083" r="32.376"/>
<path style="fill:#808080;" d="M405.193,205.941c-2.227-4.135-7.385-5.683-11.521-3.455l-23.004,12.387
	c-5.205-16.596-20.727-28.67-39.017-28.67c-19.625,0-36.06,13.904-39.986,32.376h-21.352c-3.925-18.473-20.36-32.376-39.985-32.376
	c-17.969,0-33.255,11.658-38.724,27.804l-21.395-11.521c-4.134-2.226-9.294-0.68-11.521,3.457
	c-2.227,4.136-0.679,9.294,3.457,11.521l27.653,14.891c2.595,20.06,19.775,35.613,40.53,35.613c19.625,0,36.06-13.904,39.985-32.376
	h21.352c3.925,18.473,20.36,32.376,39.986,32.376c20.373,0,37.312-14.982,40.382-34.507l29.704-15.996
	C405.873,215.236,407.421,210.077,405.193,205.941z M230.328,250.955c-13.161,0-23.867-10.706-23.871-23.865
	c0-0.011,0.001-0.022,0.001-0.033c0.015-13.149,10.716-23.842,23.87-23.842c13.162,0,23.87,10.708,23.87,23.871
	C254.198,240.248,243.49,250.955,230.328,250.955z M331.651,250.955c-13.162,0-23.871-10.708-23.871-23.871
	s10.708-23.871,23.871-23.871c13.163,0,23.871,10.708,23.871,23.871S344.814,250.955,331.651,250.955z"/>
<path style="fill:#F9C573;" d="M454.957,262.695c-3.674,22.137-22.25,39.216-44.614,41.11c-7.405,0.624-19.058-0.386-25.276-2.722
	c9.321-15.707,18.527-34.373,16.691-53.335l-8.074-83.546c-1.35-13.949-5.205-27.093-11.114-39.012
	c-7.734,20.833-27.796,35.677-51.316,35.677h-98.618c-23.52,0-43.582-14.845-51.316-35.677
	c-5.908,11.919-9.764,25.063-11.114,39.012l-8.074,83.546c-1.826,18.927,7.369,37.583,16.657,53.278
	c-6.065,2.313-17.519,3.345-24.754,2.835c-26.696-1.917-46.644-24.36-45.759-51.101c0.408-12.35,5.137-23.543,12.985-31.98
	c13.45-14.471,21.411-33.171,21.411-52.915v-1.236c0-7.746,0.646-15.344,1.86-22.749c6.317-63.042,55.024-113.576,117.194-122.694
	c6.6-0.975,13.348-1.474,20.22-1.474c70.255,0,128.251,52.45,136.971,120.335c1.667,8.607,2.552,17.487,2.552,26.582v1.962
	c0,19.517,7.723,38.082,20.957,52.439C452.224,231.667,457.633,246.603,454.957,262.695z"/>
<g>
	<path style="fill:#E6E6E6;" d="M487.888,465.544H360.603v35.752h127.283c9.873,0,17.876-8.003,17.876-17.876l0,0
		C505.763,473.547,497.76,465.544,487.888,465.544z"/>
	<rect x="378.753" y="434.967" style="fill:#E6E6E6;" width="108.87" height="30.575"/>
</g>
<rect x="368.161" y="408.771" style="fill:#FCEA81;" width="130.042" height="26.197"/>
<path style="fill:#F95428;" d="M84.031,126.12c-33.54,0-60.827-27.288-60.827-60.827S50.491,4.466,84.031,4.466
	s60.826,27.287,60.826,60.826S117.571,126.12,84.031,126.12z M84.031,21.477c-24.16,0-43.817,19.657-43.817,43.817
	s19.657,43.817,43.817,43.817s43.817-19.657,43.817-43.817S108.191,21.477,84.031,21.477z"/>
<path style="fill:#4D4D4D;" d="M97.467,72.097H84.031c-3.757,0-6.804-3.047-6.804-6.804v-22.72c0-3.757,3.047-6.804,6.804-6.804
	c3.757,0,6.804,3.047,6.804,6.804V58.49h6.631c3.757,0,6.804,3.047,6.804,6.804S101.224,72.097,97.467,72.097z"/>
<path style="fill:#E2AF66;" d="M232.636,160.868c-23.52,0-43.582-14.845-51.316-35.677c-5.908,11.919-9.764,25.063-11.114,39.012
	l-8.074,83.546c-1.826,18.927,7.369,37.583,16.657,53.278c-6.065,2.313-17.519,3.345-24.754,2.835
	c-26.696-1.917-46.644-24.36-45.759-51.101c0.408-12.35,5.137-23.543,12.985-31.98c13.45-14.471,21.411-33.171,21.411-52.915v-1.236
	c0-7.746,0.646-15.344,1.86-22.749c6.317-63.042,55.024-113.576,117.194-122.694C260.307,22.297,198.059,71.3,232.636,160.868z"/>
<path style="fill:#F2F2F2;" d="M326.338,289.724c0,0-0.646,1.588-2.007,4.094c-0.329,0.646-0.714,1.327-1.145,2.064
	c-0.51,0.726-1.1,1.463-1.735,2.291c-0.635,0.828-1.361,1.667-2.132,2.597c-0.272,0.352-0.567,0.646-0.885,0.953
	c-0.113,0.113-0.238,0.227-0.363,0.34c-0.442,0.408-0.896,0.839-1.361,1.27c-0.93,0.873-1.939,1.735-2.994,2.642
	c-1.111,0.817-2.302,1.588-3.527,2.427c-0.612,0.42-1.247,0.828-1.894,1.236c-0.646,0.386-1.338,0.703-2.041,1.055
	c-1.384,0.703-2.824,1.384-4.309,2.064c-3.062,1.043-6.249,2.268-9.651,2.778c-3.357,0.783-6.861,0.907-10.354,1.077
	c-3.493-0.17-6.997-0.284-10.354-1.066c-3.402-0.51-6.589-1.735-9.651-2.778c-1.486-0.669-2.926-1.35-4.321-2.053
	c-0.692-0.352-1.384-0.669-2.041-1.055c-0.635-0.42-1.27-0.817-1.883-1.236c-1.225-0.839-2.427-1.622-3.538-2.427
	c-1.055-0.907-2.053-1.78-2.994-2.642c-0.465-0.442-0.907-0.862-1.35-1.281c-0.159-0.147-0.318-0.295-0.476-0.442
	c-0.272-0.272-0.533-0.533-0.76-0.839c-0.737-0.896-1.452-1.724-2.075-2.54c-0.612-0.828-1.213-1.554-1.712-2.279
	c-0.454-0.771-0.873-1.474-1.225-2.121c-1.418-2.586-2.007-4.128-2.007-4.128s1.678,0.51,4.264,1.554
	c0.658,0.25,1.338,0.556,2.098,0.862c0.805,0.238,1.633,0.544,2.518,0.839c0.896,0.295,1.792,0.658,2.744,0.998
	c0.941,0.363,2.007,0.601,3.062,0.919c1.055,0.306,2.109,0.68,3.209,1.009c1.145,0.249,2.291,0.544,3.47,0.828
	c0.59,0.136,1.168,0.306,1.758,0.465c0.601,0.136,1.225,0.215,1.837,0.34c1.236,0.215,2.472,0.465,3.708,0.748
	c2.574,0.238,5.115,0.805,7.768,0.907c2.62,0.34,5.296,0.249,7.95,0.408c2.665-0.159,5.341-0.057,7.961-0.397
	c2.654-0.091,5.194-0.669,7.768-0.907c1.236-0.272,2.472-0.522,3.708-0.737c0.612-0.125,1.236-0.204,1.837-0.34
	c0.59-0.17,1.179-0.329,1.758-0.465c1.179-0.284,2.325-0.59,3.47-0.828c1.111-0.329,2.166-0.703,3.221-1.009
	c1.043-0.318,2.132-0.567,3.039-0.919c0.93-0.318,1.803-0.669,2.688-0.941c0.873-0.295,1.69-0.59,2.495-0.828
	c0.794-0.34,1.497-0.669,2.166-0.93C324.693,290.2,326.338,289.724,326.338,289.724z"/>
<g>
	<path style="fill:#4D4D4D;" d="M318.496,301.722c-0.113,0.113-0.238,0.227-0.363,0.34c-0.442,0.408-0.896,0.839-1.361,1.27
		c-0.93,0.873-1.939,1.735-2.994,2.642c-1.111,0.817-2.302,1.588-3.527,2.427c-0.612,0.42-1.247,0.828-1.894,1.236
		c-0.646,0.386-1.338,0.703-2.041,1.055c-1.384,0.703-2.824,1.384-4.309,2.064c-3.062,1.043-6.249,2.268-9.651,2.778
		c-3.357,0.783-6.861,0.907-10.354,1.077c-3.493-0.17-6.997-0.284-10.354-1.066c-3.402-0.51-6.589-1.735-9.651-2.778
		c-1.486-0.669-2.926-1.35-4.321-2.053c-0.692-0.352-1.384-0.669-2.041-1.055c-0.635-0.42-1.27-0.817-1.883-1.236
		c-1.225-0.839-2.427-1.622-3.538-2.427c-1.055-0.907-2.053-1.78-2.994-2.642c-0.465-0.442-0.907-0.862-1.35-1.281
		c-0.159-0.147-0.318-0.295-0.476-0.442c0.363,0.125,0.726,0.25,1.1,0.374c0.896,0.295,1.792,0.646,2.744,0.987
		c0.941,0.374,2.007,0.612,3.062,0.93c1.055,0.306,2.109,0.669,3.209,1.009c1.145,0.238,2.291,0.544,3.47,0.828
		c0.59,0.136,1.168,0.295,1.758,0.454c0.601,0.136,1.225,0.215,1.837,0.34c1.236,0.215,2.472,0.476,3.708,0.748
		c2.574,0.25,5.115,0.817,7.768,0.907c2.62,0.352,5.296,0.249,7.95,0.42c2.665-0.159,5.341-0.057,7.961-0.408
		c2.654-0.091,5.194-0.658,7.768-0.896c1.236-0.272,2.472-0.533,3.708-0.748c0.612-0.125,1.236-0.204,1.837-0.34
		c0.59-0.159,1.179-0.318,1.758-0.454c1.179-0.284,2.325-0.59,3.47-0.828c1.111-0.34,2.166-0.714,3.221-1.009
		c1.043-0.318,2.132-0.578,3.039-0.919c0.93-0.329,1.803-0.669,2.688-0.953C317.804,301.961,318.155,301.836,318.496,301.722z"/>
	<circle style="fill:#4D4D4D;" cx="331.655" cy="227.083" r="8.505"/>
	<circle style="fill:#4D4D4D;" cx="230.327" cy="227.083" r="8.505"/>
</g>
<path style="fill:#F95428;" d="M487.888,507.533H360.603c-3.444,0-6.237-2.792-6.237-6.237c0-3.445,2.793-6.237,6.237-6.237h127.283
	c6.418,0,11.639-5.221,11.639-11.639s-5.221-11.639-11.639-11.639H360.603c-3.444,0-6.237-2.792-6.237-6.237
	s2.793-6.237,6.237-6.237h127.283c13.297,0,24.113,10.818,24.113,24.113S501.183,507.533,487.888,507.533z"/>
<g>
</g>
<g>
</g>
<g>
</g>
<g>
</g>
<g>
</g>
<g>
</g>
<g>
</g>
<g>
</g>
<g>
</g>
<g>
</g>
<g>
</g>
<g>
</g>
<g>
</g>
<g>
</g>
<g>
</g>
</svg>
