<?xml version="1.0" encoding="iso-8859-1"?>
<!-- Generator: Adobe Illustrator 19.0.0, SVG Export Plug-In . SVG Version: 6.00 Build 0)  -->
<svg version="1.1" id="Layer_1" xmlns="http://www.w3.org/2000/svg" xmlns:xlink="http://www.w3.org/1999/xlink" x="0px" y="0px"
	 viewBox="0 0 511.999 511.999" style="enable-background:new 0 0 511.999 511.999;" xml:space="preserve">
<rect x="457.313" y="316.885" style="fill:#90BC42;" width="12.815" height="156.993"/>
<path style="fill:#9691C6;" d="M320.527,327.092H210.659c-39.791,0-72.049,32.257-72.049,72.049V504.9h253.965V399.142
	C392.575,359.35,360.318,327.092,320.527,327.092z"/>
<path style="fill:#7E7BAF;" d="M255.051,327.092h-44.393c-39.791,0-72.049,32.257-72.049,72.049V504.9h44.393V399.142
	C183.002,359.35,215.259,327.092,255.051,327.092z"/>
<path style="fill:#F7CBA4;" d="M316.28,303.667v64.726c0,27.994-22.694,50.688-50.688,50.688c-28.006,0-50.7-22.694-50.7-50.688
	v-64.726H316.28z"/>
<g>
	<path style="fill:#E0B394;" d="M142.78,228.619c-14.446-0.641-25.944-12.558-25.944-27.156c0-15.005,12.162-27.179,27.179-27.179
		c1.351,0,2.679,0.093,3.984,0.291"/>
	<path style="fill:#E0B394;" d="M388.381,228.619c14.446-0.641,25.956-12.558,25.956-27.156c0-15.005-12.174-27.179-27.191-27.179
		c-1.351,0-2.691,0.105-3.984,0.291"/>
	<path style="fill:#E0B394;" d="M316.28,303.667v51.644l-11.37,8.26c-23.451,17.044-55.197,17.044-78.648,0l-11.37-8.26v-51.644
		H316.28z"/>
</g>
<path style="fill:#F7CBA4;" d="M226.267,346.101l-47.821-34.744c-25.271-18.36-38.942-48.722-35.937-79.814l8.295-85.833
	c5.713-59.117,55.391-104.226,114.783-104.226l0,0c59.392,0,109.07,45.109,114.783,104.226l8.295,85.833
	c3.004,31.092-10.667,61.453-35.937,79.814l-47.821,34.744C281.459,363.136,249.712,363.136,226.267,346.101z"/>
<path style="fill:#E0B394;" d="M172.268,248.459c-0.804,13.595,3.623,26.969,12.384,37.396l49.981,61.418
	c2.61,3.111,5.569,5.72,8.772,7.805c-6.011-2.097-11.79-5.103-17.137-8.982l-47.822-34.74
	c-25.268-18.36-38.934-48.719-35.928-79.813l8.283-85.836c5.662-58.54,54.428-103.345,113.061-104.196
	c-36.114,0.874-77.009,34.914-79.141,71.169L172.268,248.459z"/>
<path style="fill:#F9C573;" d="M376.388,63.799c-1.491-19.234-15.343-35.252-34.169-39.481L265.622,7.111L265.599,7.1h-0.012
	l-76.621,17.218c-18.826,4.229-32.689,20.247-34.169,39.481l-3.786,49.162c13.013-3.18,26.119,11.462,39.295,9.377
	c24.942-3.938,50.117-1.177,75.293-1.165c25.164,0,50.327,1.899,75.269,5.825c13.176,2.085,26.282-17.217,39.295-14.037h0.012
	L376.388,63.799z"/>
<path style="fill:#E2AF66;" d="M265.587,7.1l-50.618,17.218c-12.419,4.229-21.575,20.247-22.554,39.469l-2.109,41.287
	c-13.176,2.085-26.282,4.707-39.295,7.887l3.786-49.162c1.48-19.234,15.343-35.252,34.169-39.481L265.587,7.1z"/>
<path style="fill:#90BC42;" d="M84.955,256.19V148.386c0-4.825-3.911-8.737-8.737-8.737c-4.826,0-8.737,3.912-8.737,8.737v42.896
	l-14.083-1.989l12.409,17.921c0.472,0.676,1.04,1.285,1.675,1.823v106.067c0,4.825,3.911,8.737,8.737,8.737s8.737-3.912,8.737-8.737
	v-38.692c1.4-0.987,2.555-2.358,3.265-4.055l8.913-21.27L84.955,256.19z"/>
<polygon style="fill:#F9B4EC;" points="55.267,25.871 52.141,52.794 75.276,68.859 98.391,52.804 95.266,25.871 74.477,31.162 "/>
<polygon style="fill:#E59EDB;" points="32.299,36.392 32.299,96.065 75.276,66.229 52.141,50.163 "/>
<path style="fill:#F9B4EC;" d="M118.243,36.389v69.028c0,19.337-12.783,35.697-30.352,41.084h-0.01
	c-0.368,0.115-0.747,0.232-1.125,0.326c-0.221,0.063-0.452,0.126-0.684,0.178c-0.778,0.211-1.568,0.389-2.367,0.548
	c-0.253,0.052-0.516,0.105-0.778,0.148c-0.958,0.178-1.926,0.316-2.915,0.421c-0.473,0.052-0.958,0.105-1.441,0.136h-0.031
	c-0.548,0.042-1.083,0.073-1.631,0.096c-0.548,0.021-1.094,0.031-1.641,0.031c-23.735,0-42.977-19.231-42.977-42.967v-9.343h0.01
	v-0.01l25.239-17.517l17.738-12.321l23.114-16.055L118.243,36.389z"/>
<path style="fill:#E59EDB;" d="M87.88,146.502c-0.368,0.115-0.747,0.232-1.125,0.326c-0.221,0.063-0.452,0.126-0.684,0.178
	c-0.778,0.211-1.568,0.389-2.367,0.548c-0.253,0.052-0.516,0.105-0.778,0.148c-0.958,0.178-1.926,0.316-2.915,0.421
	c-0.473,0.052-0.958,0.105-1.441,0.136h-0.031c-0.548,0.042-1.083,0.073-1.631,0.096c-0.548,0.021-1.094,0.031-1.641,0.031
	c-23.735,0-42.977-19.231-42.977-42.967v-9.343h0.01v-0.01l25.239-17.517v26.869C57.537,124.755,70.321,141.094,87.88,146.502z"/>
<g>
	<path style="fill:#F9C573;" d="M432.856,320.647c-4.23,0.546-8.314,2.445-11.558,5.687c-7.805,7.805-7.805,20.464,0.006,28.275
		c7.805,7.805,20.47,7.812,28.275,0.006c3.243-3.243,5.141-7.328,5.687-11.558l39.318-39.318c4.23-0.546,8.314-2.445,11.558-5.687
		c7.812-7.812,7.805-20.476,0-28.282c-7.812-7.812-20.47-7.812-28.282,0c-3.243,3.243-5.141,7.328-5.687,11.558"/>
	<path style="fill:#F9C573;" d="M455.268,281.329c-0.546-4.23-2.445-8.314-5.687-11.558c-7.812-7.812-20.47-7.812-28.282,0
		c-7.805,7.805-7.812,20.47,0,28.282c3.243,3.243,7.328,5.141,11.558,5.687l39.318,39.318c0.546,4.23,2.445,8.314,5.687,11.558
		c7.805,7.805,20.47,7.8,28.275-0.006c7.812-7.812,7.812-20.47,0.006-28.275c-3.243-3.243-7.328-5.141-11.558-5.687"/>
</g>
<circle style="fill:#F95428;" cx="463.72" cy="312.19" r="31.996"/>
<circle style="fill:#E6E6E6;" cx="463.72" cy="312.19" r="15.997"/>
<path style="fill:#90BC42;" d="M463.721,430.61v8.321h8.321c20.497,0,37.113-16.616,37.113-37.113v-8.321h-8.321
	C480.337,393.496,463.721,410.112,463.721,430.61z"/>
<path style="fill:#9691C6;" d="M381.98,151.371c1.142,14.795-14.982,24.674-27.61,16.881c-54.265-33.551-123.301-33.551-177.566,0
	c-12.628,7.794-28.763-2.085-27.61-16.881l1.817-38.409c13.013-3.18,26.119-5.802,39.295-7.887
	c24.942-3.938,50.117-5.906,75.293-5.895c25.164,0,50.327,1.969,75.269,5.895c13.176,2.085,26.282,4.707,39.295,7.887
	L381.98,151.371z"/>
<path style="fill:#B3B3B3;" d="M104.381,430.052l-11.504-24.925l20.153-43.666c4.044-8.763,0.219-19.144-8.543-23.189l0,0
	l-21.233,46.005l-21.233-46.005l0,0c-8.763,4.044-12.588,14.426-8.543,23.189l20.153,43.666l-11.504,24.925
	c-6.52-8.925-2.42,46.675,3.157,35.215c0.965-1.98,17.969-39.29,17.969-39.29s16.773,36.674,17.542,38.38
	C106.184,476.305,110.901,421.126,104.381,430.052z"/>
<path style="fill:#F95428;" d="M166.441,448.055c-1.095-17.382-15.448-31.396-32.841-32.118
	c-11.988-0.489-22.694,5.196-29.218,14.12l-4.019-8.726l-13.199,13.199c5.009,10.939,13.106,28.658,13.642,29.823
	c5.382,11.953,17.405,20.294,31.338,20.294C151.832,484.646,167.699,468.011,166.441,448.055z M132.144,467.172
	c-9.308,0-16.892-7.584-16.892-16.892c0-9.32,7.584-16.892,16.892-16.892c9.32,0,16.892,7.572,16.892,16.892
	C149.036,459.588,141.463,467.172,132.144,467.172z M66.159,421.33l-4.031,8.726c-6.512-8.924-17.23-14.609-29.206-14.12
	c-17.405,0.722-31.746,14.737-32.852,32.118c-1.258,19.956,14.609,36.592,34.297,36.592c13.584,0,25.338-7.922,30.919-19.385
	c0.664-1.363,8.994-19.595,14.073-30.732L66.159,421.33z M34.367,467.172c-9.308,0-16.892-7.584-16.892-16.892
	c0-9.32,7.584-16.892,16.892-16.892c9.32,0,16.892,7.572,16.892,16.892C51.259,459.588,43.687,467.172,34.367,467.172z"/>
<path style="fill:#F2F2F2;" d="M311.192,273.889c0,0-0.664,1.631-2.062,4.206c-0.338,0.664-0.734,1.363-1.177,2.12
	c-0.524,0.746-1.13,1.503-1.782,2.353c-0.652,0.85-1.398,1.713-2.19,2.668c-0.28,0.361-0.582,0.664-0.909,0.979
	c-0.116,0.117-0.245,0.233-0.373,0.35c-0.454,0.419-0.92,0.862-1.398,1.305c-0.955,0.897-1.992,1.782-3.076,2.714
	c-1.142,0.839-2.365,1.631-3.623,2.493c-0.629,0.431-1.281,0.85-1.945,1.27c-0.664,0.396-1.375,0.722-2.097,1.083
	c-1.421,0.722-2.901,1.421-4.427,2.12c-3.145,1.072-6.419,2.33-9.914,2.854c-3.448,0.804-7.048,0.932-10.636,1.107
	c-3.588-0.175-7.188-0.291-10.636-1.095c-3.495-0.524-6.769-1.782-9.914-2.854c-1.526-0.687-3.006-1.386-4.439-2.109
	c-0.711-0.361-1.421-0.687-2.097-1.083c-0.652-0.431-1.305-0.839-1.934-1.27c-1.258-0.862-2.493-1.666-3.635-2.493
	c-1.083-0.932-2.109-1.829-3.076-2.714c-0.478-0.454-0.932-0.885-1.386-1.316c-0.163-0.151-0.326-0.303-0.489-0.454
	c-0.28-0.28-0.548-0.548-0.781-0.862c-0.757-0.92-1.491-1.771-2.132-2.61c-0.629-0.85-1.247-1.596-1.759-2.342
	c-0.466-0.792-0.897-1.514-1.258-2.178c-1.456-2.656-2.062-4.241-2.062-4.241s1.724,0.524,4.38,1.596
	c0.676,0.256,1.375,0.571,2.155,0.885c0.827,0.245,1.678,0.559,2.586,0.862c0.92,0.303,1.841,0.676,2.819,1.025
	c0.967,0.373,2.062,0.617,3.145,0.944c1.083,0.315,2.167,0.699,3.297,1.037c1.177,0.256,2.353,0.559,3.565,0.85
	c0.606,0.14,1.2,0.315,1.806,0.478c0.617,0.14,1.258,0.221,1.887,0.349c1.27,0.221,2.54,0.478,3.809,0.769
	c2.645,0.245,5.254,0.827,7.98,0.932c2.691,0.349,5.44,0.256,8.166,0.419c2.738-0.163,5.487-0.058,8.178-0.408
	c2.726-0.093,5.336-0.687,7.98-0.932c1.27-0.28,2.54-0.536,3.81-0.757c0.629-0.128,1.27-0.21,1.887-0.349
	c0.606-0.175,1.212-0.338,1.806-0.478c1.212-0.291,2.388-0.606,3.565-0.85c1.142-0.338,2.225-0.722,3.309-1.037
	c1.072-0.326,2.19-0.582,3.122-0.944c0.955-0.326,1.852-0.687,2.761-0.967c0.897-0.303,1.736-0.606,2.563-0.85
	c0.815-0.349,1.538-0.687,2.225-0.955C309.502,274.378,311.192,273.889,311.192,273.889z"/>
<g>
	<path style="fill:#4D4D4D;" d="M303.072,286.214c-0.116,0.117-0.245,0.233-0.373,0.35c-0.454,0.419-0.92,0.862-1.398,1.305
		c-0.955,0.897-1.992,1.782-3.076,2.714c-1.142,0.839-2.365,1.631-3.623,2.493c-0.629,0.431-1.281,0.85-1.945,1.27
		c-0.664,0.396-1.375,0.722-2.097,1.083c-1.421,0.722-2.901,1.421-4.427,2.12c-3.145,1.072-6.419,2.33-9.914,2.854
		c-3.448,0.804-7.048,0.932-10.636,1.107c-3.588-0.175-7.188-0.291-10.636-1.095c-3.495-0.524-6.769-1.782-9.914-2.854
		c-1.526-0.687-3.006-1.386-4.439-2.109c-0.711-0.361-1.421-0.687-2.097-1.083c-0.652-0.431-1.305-0.839-1.934-1.27
		c-1.258-0.862-2.493-1.666-3.635-2.493c-1.083-0.932-2.109-1.829-3.076-2.714c-0.478-0.454-0.932-0.885-1.386-1.316
		c-0.163-0.151-0.326-0.303-0.489-0.454c0.373,0.128,0.746,0.256,1.13,0.384c0.92,0.303,1.841,0.664,2.819,1.014
		c0.967,0.384,2.062,0.629,3.145,0.955c1.083,0.315,2.167,0.687,3.297,1.037c1.177,0.245,2.353,0.559,3.565,0.85
		c0.606,0.14,1.2,0.303,1.806,0.466c0.617,0.14,1.258,0.221,1.887,0.35c1.27,0.221,2.54,0.489,3.809,0.769
		c2.645,0.256,5.254,0.839,7.98,0.932c2.691,0.361,5.44,0.256,8.166,0.431c2.738-0.163,5.487-0.058,8.178-0.419
		c2.726-0.093,5.336-0.676,7.98-0.92c1.27-0.28,2.54-0.548,3.81-0.769c0.629-0.128,1.27-0.21,1.887-0.349
		c0.606-0.163,1.212-0.326,1.806-0.466c1.212-0.291,2.388-0.606,3.565-0.85c1.142-0.349,2.225-0.734,3.309-1.037
		c1.072-0.326,2.19-0.594,3.122-0.944c0.955-0.338,1.852-0.687,2.761-0.979C302.361,286.459,302.722,286.331,303.072,286.214z"/>
	<path style="fill:#4D4D4D;" d="M213.725,231.952c-4.825,0-8.737-3.912-8.737-8.737V209.24c0-4.825,3.912-8.737,8.737-8.737
		c4.825,0,8.737,3.912,8.737,8.737v13.975C222.462,228.04,218.55,231.952,213.725,231.952z"/>
</g>
<g>
	<path style="fill:#666666;" d="M297.47,185.94c0,0,0.023-0.232,0.101-0.63c0.09-0.386,0.181-0.995,0.376-1.685
		c0.087-0.356,0.2-0.728,0.33-1.137c0.169-0.415,0.396-0.832,0.637-1.305c0.239-0.475,0.541-0.945,0.857-1.473
		c0.319-0.536,0.7-0.942,1.09-1.46c0.396-0.497,0.842-0.979,1.308-1.496c0.493-0.467,1.027-0.927,1.596-1.39
		c1.113-0.98,2.472-1.688,3.889-2.476c1.466-0.62,3.021-1.292,4.687-1.603c1.65-0.429,3.38-0.53,5.105-0.61
		c1.725,0.079,3.457,0.171,5.107,0.598c1.667,0.308,3.224,0.983,4.69,1.598c1.418,0.786,2.778,1.493,3.892,2.474
		c0.567,0.464,1.103,0.925,1.597,1.39c0.466,0.518,0.91,1.004,1.308,1.498c0.384,0.515,0.784,0.938,1.076,1.453
		c0.294,0.513,0.578,0.972,0.809,1.436c0.229,0.466,0.452,0.876,0.62,1.29c0.153,0.431,0.288,0.821,0.388,1.191
		c0.221,0.714,0.313,1.328,0.398,1.713c0.075,0.397,0.091,0.623,0.091,0.623s-0.241-0.006-0.649-0.045
		c-0.396-0.051-1.011-0.077-1.69-0.176c-0.352-0.036-0.711-0.101-1.106-0.154c-0.421-0.02-0.835-0.078-1.286-0.113
		c-0.884-0.093-1.807-0.232-2.822-0.271c-0.499-0.033-0.982-0.105-1.488-0.147c-0.523-0.007-1.039-0.034-1.552-0.072
		c-1.004-0.13-2.096-0.054-3.109-0.181c-1.066,0.038-2.086-0.092-3.143-0.059c-1.039-0.078-2.09,0.005-3.133-0.069
		c-1.043,0.071-2.093-0.02-3.135,0.056c-1.058-0.037-2.078,0.098-3.147,0.055c-1.015,0.126-2.109,0.048-3.113,0.179
		c-0.513,0.038-1.029,0.066-1.553,0.072c-0.506,0.042-0.987,0.119-1.488,0.149c-1.035,0.056-1.894,0.154-2.758,0.228
		c-0.453,0.035-0.877,0.068-1.27,0.097c-0.418,0.076-0.8,0.16-1.164,0.207c-0.705,0.125-1.321,0.154-1.714,0.204
		C297.703,185.94,297.47,185.94,297.47,185.94z"/>
	<path style="fill:#666666;" d="M193.748,185.94c0,0,0.023-0.232,0.101-0.63c0.09-0.386,0.181-0.995,0.376-1.685
		c0.087-0.356,0.2-0.728,0.33-1.137c0.169-0.415,0.396-0.832,0.637-1.305c0.239-0.475,0.541-0.945,0.857-1.473
		c0.319-0.536,0.7-0.942,1.09-1.46c0.396-0.497,0.842-0.979,1.308-1.496c0.493-0.467,1.028-0.927,1.596-1.39
		c1.113-0.98,2.472-1.688,3.889-2.476c1.466-0.62,3.021-1.292,4.687-1.603c1.65-0.429,3.38-0.53,5.105-0.61
		c1.725,0.079,3.456,0.171,5.107,0.598c1.667,0.308,3.223,0.983,4.69,1.598c1.418,0.786,2.778,1.493,3.892,2.474
		c0.567,0.464,1.103,0.925,1.597,1.39c0.466,0.518,0.91,1.004,1.308,1.498c0.384,0.515,0.784,0.938,1.076,1.453
		c0.294,0.513,0.578,0.972,0.809,1.436c0.23,0.466,0.452,0.876,0.62,1.29c0.153,0.431,0.288,0.821,0.388,1.191
		c0.221,0.714,0.313,1.328,0.398,1.713c0.075,0.397,0.091,0.623,0.091,0.623s-0.241-0.006-0.649-0.045
		c-0.396-0.051-1.011-0.077-1.69-0.176c-0.352-0.036-0.711-0.101-1.106-0.154c-0.421-0.02-0.835-0.078-1.286-0.113
		c-0.884-0.093-1.807-0.232-2.822-0.271c-0.499-0.033-0.982-0.105-1.488-0.147c-0.523-0.007-1.039-0.034-1.552-0.072
		c-1.004-0.13-2.096-0.054-3.109-0.181c-1.066,0.038-2.086-0.092-3.143-0.059c-1.039-0.078-2.09,0.005-3.133-0.069
		c-1.043,0.071-2.093-0.02-3.135,0.056c-1.058-0.037-2.078,0.098-3.147,0.055c-1.015,0.126-2.109,0.048-3.113,0.179
		c-0.513,0.038-1.029,0.066-1.553,0.072c-0.506,0.042-0.987,0.119-1.488,0.149c-1.035,0.056-1.894,0.154-2.758,0.228
		c-0.453,0.035-0.877,0.068-1.27,0.097c-0.418,0.076-0.8,0.16-1.164,0.207c-0.705,0.125-1.321,0.154-1.713,0.204
		C193.981,185.94,193.748,185.94,193.748,185.94z"/>
</g>
<path style="fill:#4D4D4D;" d="M317.447,231.952c-4.825,0-8.737-3.912-8.737-8.737V209.24c0-4.825,3.912-8.737,8.737-8.737
	c4.825,0,8.737,3.912,8.737,8.737v13.975C326.185,228.04,322.273,231.952,317.447,231.952z"/>
<path style="fill:#E0B394;" d="M278.983,196.425v41.357c0,7.399-5.998,13.397-13.397,13.397l0,0
	c-7.399,0-13.397-5.998-13.397-13.397v-41.357"/>
<g>
</g>
<g>
</g>
<g>
</g>
<g>
</g>
<g>
</g>
<g>
</g>
<g>
</g>
<g>
</g>
<g>
</g>
<g>
</g>
<g>
</g>
<g>
</g>
<g>
</g>
<g>
</g>
<g>
</g>
</svg>
