<?xml version="1.0" encoding="iso-8859-1"?>
<!-- Generator: Adobe Illustrator 19.0.0, SVG Export Plug-In . SVG Version: 6.00 Build 0)  -->
<svg version="1.1" id="Layer_1" xmlns="http://www.w3.org/2000/svg" xmlns:xlink="http://www.w3.org/1999/xlink" x="0px" y="0px"
	 viewBox="0 0 512 512" style="enable-background:new 0 0 512 512;" xml:space="preserve">
<path style="fill:#E2AF66;" d="M468.442,408.483c-4.757,0-8.614-3.857-8.614-8.614V337.85c0-13.616,11.077-24.693,24.693-24.693
	c4.116,0,7.465-3.349,7.465-7.465c0-4.757,3.857-8.614,8.614-8.614c4.757,0,8.614,3.857,8.614,8.614
	c0,13.616-11.077,24.693-24.693,24.693c-4.116,0-7.465,3.349-7.465,7.465v62.019C477.056,404.628,473.199,408.483,468.442,408.483z"
	/>
<path style="fill:#B3B3B3;" d="M236.479,275.096l38.316,115.172H61.606c-26.209,0-48.605-16.366-57.494-39.451
	C1.459,343.949,0,336.472,0,328.662v-12.197c0-12.519,10.153-22.66,22.672-22.66h60.021l5.478-22.832
	c3.067-12.806,11.761-23.533,23.648-29.184c5.926-2.814,12.335-4.238,18.755-4.238c5.582,0,11.175,1.08,16.458,3.227
	L236.479,275.096z"/>
<path style="fill:#4D4D4D;" d="M37.901,293.805v11.118c0,13.116-10.624,23.74-23.728,23.74H0v-12.197
	c0-12.519,10.153-22.66,22.672-22.66L37.901,293.805L37.901,293.805z"/>
<path style="fill:#E6E6E6;" d="M141.864,376.589v13.679H61.606c-26.209,0-48.605-16.366-57.494-39.451H116.08
	C130.321,350.817,141.864,362.359,141.864,376.589z"/>
<path style="fill:#4D4D4D;" d="M118.866,304.137c-4.757,0-8.614-3.857-8.614-8.614v-18.949c0-4.757,3.857-8.614,8.614-8.614
	s8.614,3.857,8.614,8.614v18.949C127.48,300.281,123.623,304.137,118.866,304.137z"/>
<path style="fill:#F2F2F2;" d="M422.824,396.252v104.262H172.45V396.252c0-30.102,18.732-55.84,45.171-66.177
	c8.017-3.135,16.734-4.858,25.853-4.858h108.316c9.119,0,17.836,1.711,25.841,4.847C404.08,340.4,422.824,366.138,422.824,396.252z"
	/>
<path style="fill:#E6E6E6;" d="M287.243,325.216h-43.765c-39.228,0-71.031,31.801-71.031,71.031V500.51h43.765V396.247
	C216.212,357.019,248.013,325.216,287.243,325.216z"/>
<g>
	<circle style="fill:#CCCCCC;" cx="274.792" cy="389.815" r="7.752"/>
	<circle style="fill:#CCCCCC;" cx="274.792" cy="466.765" r="7.752"/>
	<circle style="fill:#CCCCCC;" cx="274.792" cy="428.29" r="7.752"/>
</g>
<path style="fill:#F9C573;" d="M512,368.979l-36.023,11.7c-6.84-3.341-14.525-5.222-22.651-5.222s-15.81,1.88-22.651,5.222
	l-36.023-11.7l6.177,17.956c3.225,9.374,4.113,19.475,2.001,29.161c-0.925,4.239-1.328,8.672-1.139,13.231
	c1.107,26.738,22.939,48.469,49.682,49.454c29.432,1.084,53.633-22.453,53.633-51.644c0-3.465-0.342-6.85-0.993-10.124
	c-1.997-10.034-1.519-20.402,1.809-30.076L512,368.979z"/>
<g>
	<path style="fill:#4D4D4D;" d="M434.753,432.411c-3.805,0-6.891-3.086-6.891-6.891v-12.251c0-3.805,3.086-6.891,6.891-6.891
		c3.805,0,6.891,3.086,6.891,6.891v12.251C441.644,429.325,438.558,432.411,434.753,432.411z"/>
	<path style="fill:#4D4D4D;" d="M473.802,432.411c-3.805,0-6.891-3.086-6.891-6.891v-12.251c0-3.805,3.086-6.891,6.891-6.891
		s6.891,3.086,6.891,6.891v12.251C480.693,429.325,477.607,432.411,473.802,432.411z"/>
</g>
<g>
	<path style="fill:#E0B394;" d="M178.278,228.142c-14.241-0.632-25.577-12.381-25.577-26.772c0-14.793,11.99-26.795,26.795-26.795
		c1.332,0,2.642,0.092,3.928,0.287"/>
	<path style="fill:#E0B394;" d="M416.961,228.142c14.241-0.632,25.589-12.381,25.589-26.772c0-14.793-12.002-26.795-26.806-26.795
		c-1.332,0-2.653,0.103-3.928,0.287"/>
</g>
<path style="fill:#E6E6E6;" d="M377.63,330.063l-41.243,29.965c-23.108,16.791-54.405,16.791-77.524,0l-41.243-29.953
	c8.017-3.135,16.734-4.858,25.853-4.858h108.316C360.908,325.216,369.625,326.928,377.63,330.063z"/>
<path style="fill:#CCCCCC;" d="M305.104,325.216v175.297h-14.931V325.216c0-4.123,3.342-7.465,7.465-7.465
	S305.104,321.093,305.104,325.216z"/>
<path style="fill:#F7CBA4;" d="M383.538,309.701l-47.146,34.248c-23.108,16.791-54.405,16.791-77.524,0l-47.146-34.248
	c-24.911-18.1-38.395-48.031-35.431-78.684l8.177-84.622c5.639-58.287,54.612-102.757,113.162-102.757
	c29.275,0,56.162,11.118,76.433,29.517c5.122,4.651,9.82,9.762,14.012,15.287c12.45,16.32,20.616,36.166,22.717,57.954v0.011
	l8.177,84.611C421.933,261.671,408.449,291.601,383.538,309.701z"/>
<path style="fill:#E8BA97;" d="M205.632,247.689c-0.792,13.403,3.572,26.588,12.209,36.867l49.274,60.549
	c2.573,3.067,5.49,5.639,8.648,7.695c-5.926-2.067-11.623-5.03-16.895-8.855l-47.146-34.249
	c-24.911-18.1-38.383-48.031-35.42-78.684l8.166-84.622c5.582-57.713,53.658-101.884,111.463-102.723
	c-35.604,0.861-75.92,34.421-78.022,70.162L205.632,247.689z"/>
<path style="fill:#666666;" d="M410.792,146.395v0.011c-25.738,0-44.884-44.16-44.884-44.16l22.166-13.805
	C400.525,104.762,408.691,124.608,410.792,146.395z"/>
<polyline style="fill:#F2F2F2;" points="280.051,102.245 396.955,102.245 396.955,11.487 198.31,11.487 198.31,102.245 "/>
<polyline style="fill:#CCCCCC;" points="213.196,102.245 234.485,102.245 234.485,11.487 198.31,11.487 198.31,102.245 "/>
<polygon style="fill:#F76B4F;" points="323.857,48.252 306.247,48.252 306.247,30.642 289.02,30.642 289.02,48.252 271.408,48.252 
	271.408,65.479 289.02,65.479 289.02,83.09 306.247,83.09 306.247,65.479 323.857,65.479 "/>
<path style="fill:#C0E7F9;" d="M256.801,97.078c0,27.587-22.361,49.96-49.949,49.96c-11.485,0-22.063-3.87-30.504-10.394
	c-11.83-9.131-19.456-23.464-19.456-39.566c0-27.587,22.361-49.96,49.96-49.96c10.222,0,19.72,3.067,27.633,8.338
	C247.934,64.415,256.801,79.713,256.801,97.078z"/>
<path style="fill:#E6F6FC;" d="M256.801,97.078c0,27.587-22.361,49.96-49.949,49.96c-11.485,0-22.063-3.87-30.504-10.394
	l58.137-81.188C247.934,64.415,256.801,79.713,256.801,97.078z"/>
<path style="fill:#F2F2F2;" d="M342.594,269.894c0,0-0.655,1.608-2.033,4.146c-0.333,0.655-0.724,1.344-1.16,2.09
	c-0.517,0.735-1.114,1.482-1.757,2.32s-1.378,1.688-2.159,2.63c-0.276,0.356-0.574,0.655-0.896,0.965
	c-0.115,0.115-0.241,0.23-0.368,0.345c-0.448,0.413-0.907,0.85-1.378,1.286c-0.942,0.884-1.964,1.757-3.032,2.676
	c-1.126,0.827-2.331,1.608-3.572,2.458c-0.62,0.425-1.263,0.838-1.918,1.252c-0.655,0.391-1.355,0.712-2.067,1.068
	c-1.401,0.712-2.86,1.401-4.364,2.09c-3.101,1.057-6.328,2.297-9.774,2.814c-3.4,0.792-6.948,0.919-10.486,1.091
	c-3.537-0.172-7.086-0.287-10.486-1.08c-3.446-0.517-6.673-1.757-9.774-2.814c-1.505-0.678-2.963-1.367-4.376-2.079
	c-0.701-0.356-1.401-0.678-2.067-1.068c-0.643-0.425-1.286-0.827-1.907-1.252c-1.24-0.85-2.458-1.642-3.583-2.458
	c-1.068-0.919-2.079-1.803-3.032-2.676c-0.471-0.448-0.919-0.873-1.367-1.298c-0.161-0.149-0.322-0.299-0.482-0.448
	c-0.276-0.276-0.54-0.54-0.77-0.85c-0.747-0.907-1.47-1.746-2.102-2.573c-0.62-0.838-1.229-1.573-1.734-2.309
	c-0.459-0.781-0.884-1.493-1.24-2.148c-1.436-2.619-2.033-4.181-2.033-4.181s1.7,0.517,4.318,1.573
	c0.666,0.253,1.355,0.563,2.125,0.873c0.815,0.241,1.654,0.551,2.55,0.85c0.907,0.299,1.815,0.666,2.779,1.011
	c0.953,0.368,2.033,0.609,3.101,0.93c1.068,0.31,2.136,0.689,3.25,1.022c1.16,0.253,2.32,0.551,3.514,0.838
	c0.597,0.138,1.183,0.31,1.78,0.471c0.609,0.138,1.24,0.218,1.861,0.345c1.252,0.218,2.504,0.471,3.756,0.758
	c2.607,0.241,5.18,0.815,7.867,0.919c2.653,0.345,5.364,0.253,8.051,0.413c2.699-0.161,5.409-0.057,8.063-0.402
	c2.688-0.092,5.26-0.678,7.867-0.919c1.252-0.276,2.504-0.528,3.756-0.747c0.62-0.126,1.252-0.207,1.861-0.345
	c0.597-0.172,1.194-0.333,1.78-0.471c1.194-0.287,2.354-0.597,3.514-0.838c1.126-0.333,2.194-0.712,3.262-1.022
	c1.057-0.322,2.159-0.574,3.078-0.93c0.942-0.322,1.826-0.678,2.722-0.953c0.884-0.299,1.711-0.597,2.527-0.838
	c0.804-0.345,1.516-0.678,2.194-0.942C340.929,270.376,342.594,269.894,342.594,269.894z"/>
<g>
	<path style="fill:#4D4D4D;" d="M334.589,282.045c-0.115,0.115-0.241,0.23-0.368,0.345c-0.448,0.413-0.907,0.85-1.378,1.286
		c-0.942,0.884-1.964,1.757-3.032,2.676c-1.126,0.827-2.331,1.608-3.572,2.458c-0.62,0.425-1.263,0.838-1.918,1.252
		c-0.655,0.391-1.355,0.712-2.067,1.068c-1.401,0.712-2.86,1.401-4.364,2.09c-3.101,1.057-6.328,2.297-9.774,2.814
		c-3.4,0.792-6.948,0.919-10.486,1.091c-3.537-0.172-7.086-0.287-10.486-1.08c-3.446-0.517-6.673-1.757-9.774-2.814
		c-1.505-0.678-2.963-1.367-4.376-2.079c-0.701-0.356-1.401-0.678-2.067-1.068c-0.643-0.425-1.286-0.827-1.907-1.252
		c-1.24-0.85-2.458-1.642-3.583-2.458c-1.068-0.919-2.079-1.803-3.032-2.676c-0.471-0.448-0.919-0.873-1.367-1.298
		c-0.161-0.149-0.322-0.299-0.482-0.448c0.368,0.126,0.735,0.253,1.114,0.379c0.907,0.299,1.815,0.655,2.779,0.999
		c0.953,0.379,2.033,0.62,3.101,0.942c1.068,0.31,2.136,0.678,3.25,1.022c1.16,0.241,2.32,0.551,3.514,0.838
		c0.597,0.138,1.183,0.299,1.78,0.459c0.609,0.138,1.24,0.218,1.861,0.345c1.252,0.218,2.504,0.482,3.756,0.758
		c2.607,0.253,5.18,0.827,7.867,0.919c2.653,0.356,5.364,0.253,8.051,0.425c2.699-0.161,5.409-0.057,8.063-0.413
		c2.688-0.092,5.26-0.666,7.867-0.907c1.252-0.276,2.504-0.54,3.756-0.758c0.62-0.126,1.252-0.207,1.861-0.345
		c0.597-0.161,1.194-0.322,1.78-0.459c1.194-0.287,2.354-0.597,3.514-0.838c1.126-0.345,2.194-0.724,3.262-1.022
		c1.057-0.322,2.159-0.586,3.078-0.93c0.942-0.333,1.826-0.678,2.722-0.965C333.888,282.286,334.244,282.16,334.589,282.045z"/>
	<path style="fill:#4D4D4D;" d="M246.505,231.421c-4.757,0-8.614-3.857-8.614-8.614V209.03c0-4.757,3.857-8.614,8.614-8.614
		s8.614,3.857,8.614,8.614v13.777C255.119,227.565,251.262,231.421,246.505,231.421z"/>
</g>
<g>
	<path style="fill:#666666;" d="M329.067,175.723c0,0,0.023-0.229,0.1-0.621c0.088-0.38,0.178-0.981,0.371-1.661
		c0.086-0.351,0.198-0.718,0.325-1.121c0.167-0.409,0.39-0.82,0.628-1.286c0.235-0.469,0.533-0.931,0.845-1.452
		c0.315-0.528,0.69-0.929,1.075-1.439c0.391-0.49,0.83-0.965,1.29-1.475c0.486-0.461,1.013-0.914,1.573-1.37
		c1.097-0.966,2.437-1.664,3.834-2.441c1.445-0.611,2.978-1.274,4.62-1.58c1.626-0.423,3.332-0.523,5.033-0.602
		c1.701,0.078,3.408,0.169,5.035,0.589c1.644,0.303,3.178,0.969,4.624,1.576c1.398,0.775,2.739,1.472,3.837,2.439
		c0.559,0.457,1.088,0.912,1.575,1.37c0.459,0.511,0.897,0.99,1.29,1.477c0.379,0.508,0.773,0.925,1.061,1.432
		c0.289,0.505,0.57,0.958,0.797,1.416c0.226,0.459,0.446,0.864,0.611,1.271c0.15,0.425,0.284,0.81,0.382,1.174
		c0.218,0.704,0.309,1.309,0.393,1.688c0.074,0.392,0.09,0.614,0.09,0.614s-0.238-0.006-0.64-0.045
		c-0.39-0.051-0.997-0.076-1.666-0.173c-0.347-0.036-0.701-0.1-1.09-0.152c-0.415-0.02-0.823-0.077-1.268-0.111
		c-0.872-0.092-1.781-0.229-2.782-0.268c-0.492-0.032-0.968-0.103-1.467-0.145c-0.516-0.007-1.024-0.033-1.53-0.071
		c-0.99-0.129-2.066-0.053-3.065-0.178c-1.051,0.038-2.057-0.091-3.099-0.059c-1.024-0.077-2.06,0.005-3.088-0.068
		c-1.028,0.07-2.064-0.02-3.091,0.055c-1.043-0.037-2.049,0.096-3.102,0.054c-1,0.124-2.079,0.047-3.069,0.177
		c-0.505,0.038-1.014,0.065-1.531,0.071c-0.498,0.041-0.973,0.117-1.467,0.147c-1.02,0.055-1.867,0.152-2.719,0.225
		c-0.447,0.034-0.865,0.067-1.252,0.095c-0.412,0.075-0.789,0.157-1.147,0.204c-0.695,0.123-1.302,0.152-1.688,0.201
		C329.297,175.723,329.067,175.723,329.067,175.723z"/>
	<path style="fill:#666666;" d="M226.811,175.723c0,0,0.023-0.229,0.1-0.621c0.088-0.38,0.178-0.981,0.371-1.661
		c0.086-0.351,0.198-0.718,0.325-1.121c0.167-0.409,0.39-0.82,0.628-1.286c0.235-0.469,0.533-0.931,0.845-1.452
		c0.315-0.528,0.69-0.929,1.075-1.439c0.39-0.49,0.83-0.965,1.29-1.475c0.486-0.461,1.013-0.914,1.573-1.37
		c1.097-0.966,2.437-1.664,3.834-2.441c1.445-0.611,2.978-1.274,4.62-1.58c1.626-0.423,3.332-0.523,5.033-0.602
		c1.701,0.078,3.408,0.169,5.035,0.589c1.644,0.303,3.178,0.969,4.624,1.576c1.398,0.775,2.739,1.472,3.837,2.439
		c0.559,0.457,1.088,0.912,1.575,1.37c0.459,0.511,0.897,0.99,1.29,1.477c0.379,0.508,0.773,0.925,1.061,1.432
		c0.289,0.505,0.57,0.958,0.797,1.416c0.226,0.459,0.446,0.864,0.611,1.271c0.15,0.425,0.284,0.81,0.382,1.174
		c0.218,0.704,0.309,1.309,0.393,1.688c0.073,0.392,0.09,0.614,0.09,0.614s-0.238-0.006-0.64-0.045
		c-0.39-0.051-0.997-0.076-1.666-0.173c-0.347-0.036-0.701-0.1-1.09-0.152c-0.415-0.02-0.823-0.077-1.268-0.111
		c-0.872-0.092-1.781-0.229-2.782-0.268c-0.492-0.032-0.968-0.103-1.467-0.145c-0.516-0.007-1.024-0.033-1.53-0.071
		c-0.99-0.129-2.066-0.053-3.065-0.178c-1.051,0.038-2.057-0.091-3.099-0.059c-1.024-0.077-2.06,0.005-3.088-0.068
		c-1.028,0.07-2.064-0.02-3.091,0.055c-1.043-0.037-2.049,0.096-3.102,0.054c-1,0.124-2.079,0.047-3.069,0.177
		c-0.505,0.038-1.014,0.065-1.531,0.071c-0.498,0.041-0.973,0.117-1.467,0.147c-1.02,0.055-1.867,0.152-2.719,0.225
		c-0.447,0.034-0.865,0.067-1.252,0.095c-0.412,0.075-0.789,0.157-1.147,0.204c-0.695,0.123-1.302,0.152-1.688,0.201
		C227.042,175.723,226.811,175.723,226.811,175.723z"/>
</g>
<path style="fill:#4D4D4D;" d="M348.762,231.421c-4.757,0-8.614-3.857-8.614-8.614V209.03c0-4.757,3.857-8.614,8.614-8.614
	s8.614,3.857,8.614,8.614v13.777C357.375,227.565,353.519,231.421,348.762,231.421z"/>
<path style="fill:#E8BA97;" d="M310.841,196.396v40.772c0,7.294-5.914,13.208-13.208,13.208l0,0
	c-7.294,0-13.208-5.914-13.208-13.208v-40.772"/>
<path style="fill:#999999;" d="M123.225,248.163l-13.014-42.753c-1.472-4.838,3.156-9.335,7.934-7.678
	c15.01,5.207,41.109,18.376,52.816,49.061c16.94,44.404,9.935,51.411,9.935,51.411L123.225,248.163z"/>
<circle style="fill:#666666;" cx="453.327" cy="444.657" r="8.614"/>
<path style="fill:#FFFFFF;" d="M218.326,97.078c0,6.34-5.138,11.48-11.478,11.48c-2.639,0-5.07-0.889-7.009-2.389
	c-2.719-2.098-4.471-5.392-4.471-9.092c0-6.34,5.138-11.48,11.48-11.48c2.349,0,4.532,0.705,6.35,1.916
	C216.288,89.573,218.326,93.088,218.326,97.078z"/>
<g>
</g>
<g>
</g>
<g>
</g>
<g>
</g>
<g>
</g>
<g>
</g>
<g>
</g>
<g>
</g>
<g>
</g>
<g>
</g>
<g>
</g>
<g>
</g>
<g>
</g>
<g>
</g>
<g>
</g>
</svg>
