<?xml version="1.0" encoding="iso-8859-1"?>
<!-- Generator: Adobe Illustrator 19.0.0, SVG Export Plug-In . SVG Version: 6.00 Build 0)  -->
<svg version="1.1" id="Layer_1" xmlns="http://www.w3.org/2000/svg" xmlns:xlink="http://www.w3.org/1999/xlink" x="0px" y="0px"
	 viewBox="0 0 512 512" style="enable-background:new 0 0 512 512;" xml:space="preserve">
<path style="fill:#E07188;" d="M512,291.2c0-95.436-77.365-172.8-172.8-172.8c-30.164,0-58.518,7.736-83.2,21.322
	c-24.682-13.586-53.036-21.322-83.2-21.322C77.364,118.4,0,195.764,0,291.2c0,93.292,73.932,169.302,166.4,172.669V464h179.2v-0.131
	C438.068,460.502,512,384.492,512,291.2z"/>
<path style="fill:#DC4161;" d="M339.2,118.4c-8.682,0-17.21,0.662-25.548,1.898C396.922,132.691,460.8,204.483,460.8,291.2
	c0,93.292-73.932,169.302-166.4,172.669V464h51.2v-0.131C438.068,460.5,512,384.49,512,291.2C512,195.764,434.635,118.4,339.2,118.4
	z"/>
<path style="fill:#95D5A7;" d="M313.6,131.2c0-12.605,30.097-36,22.545-45.907c-7.145-9.373-40.161,12.109-51.982,6.886
	C273.444,87.444,268.977,48,256,48c-12.977,0-17.444,39.444-28.163,44.18c-11.822,5.222-44.84-16.259-51.985-6.885
	c-7.549,9.906,22.547,33.299,22.547,45.905s-30.097,36-22.545,45.907c7.144,9.373,40.161-12.109,51.982-6.886
	c10.719,4.736,15.186,44.18,28.163,44.18c12.977,0,17.444-39.444,28.163-44.18c11.822-5.222,44.84,16.259,51.985,6.885
	C343.697,167.199,313.6,143.805,313.6,131.2z"/>
<g>
	<path style="fill:#80CB93;" d="M258.563,92.18c4.847,2.141,13.262-0.209,21.993-3.08C272.253,78.548,267.423,48,256,48
		c-5.379,0-9.294,6.781-12.8,15.054C248.152,74.74,252.287,89.408,258.563,92.18z"/>
	<path style="fill:#80CB93;" d="M258.563,170.22c-6.276,2.772-10.41,17.44-15.363,29.126c3.506,8.273,7.421,15.054,12.8,15.054
		c11.423,0,16.253-30.55,24.556-41.101C271.825,170.428,263.41,168.078,258.563,170.22z"/>
	<path style="fill:#80CB93;" d="M313.6,131.2c0-12.605,30.097-36,22.545-45.907c-3.613-4.741-13.847-1.587-24.608,2.011
		C314.45,98.084,288,119.383,288,131.2s26.451,33.116,23.538,43.895c10.761,3.598,20.995,6.751,24.609,2.01
		C343.697,167.199,313.6,143.805,313.6,131.2z"/>
</g>
<g>
</g>
<g>
</g>
<g>
</g>
<g>
</g>
<g>
</g>
<g>
</g>
<g>
</g>
<g>
</g>
<g>
</g>
<g>
</g>
<g>
</g>
<g>
</g>
<g>
</g>
<g>
</g>
<g>
</g>
</svg>
